<svg width="125" height="53" viewBox="0 0 125 53" fill="none" xmlns="http://www.w3.org/2000/svg">
<path d="M25.053 15L63.053 34.5L100.553 15" stroke="#1B6EFF" stroke-opacity="0.3" stroke-width="4" stroke-linecap="round"/>
<path d="M26.6206 0.104162L53.0587 13.6909L26.5146 27.0693C26.5146 27.0693 10.4013 18.7885 0.0765646 13.4826C10.4427 8.25797 26.6206 0.104162 26.6206 0.104162Z" fill="#459EDD"/>
<path d="M0.0765646 13.4826C10.4013 18.7885 26.5146 27.0693 26.5146 27.0693L26.491 33.0615L0.0530033 19.4748C0.0530033 19.4748 0.0673634 15.8227 0.0765646 13.4826Z" fill="#3074A4"/>
<path d="M26.608 3.30373L47.9348 13.6707L26.5264 24.0732L6.21776 13.5067L26.608 3.30373Z" fill="#80C4F4"/>
<path fill-rule="evenodd" clip-rule="evenodd" d="M26.5146 27.0693L53.0587 13.6909L53.0351 19.6831L26.491 33.0615L26.5146 27.0693Z" fill="#1F5175"/>
<path d="M19.1844 13.6712L26.8432 9.24946L28.4113 10.2678L25.2513 12.0922L28.4346 14.1595L31.5946 12.3351L33.1591 13.351L25.5003 17.7728L23.9358 16.7568L27.0996 14.9303L23.9163 12.863L20.7526 14.6896L19.1844 13.6712Z" fill="white"/>
<path d="M63.1736 19.1042L89.6116 32.6909L63.0676 46.0693C63.0676 46.0693 46.9542 37.7885 36.6295 32.4826C46.9956 27.258 63.1736 19.1042 63.1736 19.1042Z" fill="#459EDD"/>
<path d="M36.6295 32.4826C46.9542 37.7885 63.0676 46.0693 63.0676 46.0693L63.044 52.0615L36.606 38.4748C36.606 38.4748 36.6203 34.8227 36.6295 32.4826Z" fill="#3074A4"/>
<path d="M63.161 22.3037L84.4878 32.6707L63.0794 43.0732L42.7707 32.5067L63.161 22.3037Z" fill="#80C4F4"/>
<path fill-rule="evenodd" clip-rule="evenodd" d="M63.0676 46.0693L89.6116 32.6909L89.5881 38.6831L63.044 52.0615L63.0676 46.0693Z" fill="#1F5175"/>
<path d="M56.4804 33.1537L57.4415 32.5989L66.5053 31.9063L62.7969 29.4981L64.1319 28.7273L69.8104 32.4149L68.8494 32.9698L59.782 33.66L63.494 36.0706L62.1589 36.8414L56.4804 33.1537Z" fill="white"/>
<path d="M98.1736 0.104162L124.612 13.6909L98.0676 27.0693C98.0676 27.0693 81.9542 18.7885 71.6295 13.4826C81.9956 8.25797 98.1736 0.104162 98.1736 0.104162Z" fill="#459EDD"/>
<path d="M71.6295 13.4826C81.9542 18.7885 98.0676 27.0693 98.0676 27.0693L98.044 33.0615L71.606 19.4748C71.606 19.4748 71.6203 15.8227 71.6295 13.4826Z" fill="#3074A4"/>
<path d="M98.161 3.30373L119.488 13.6707L98.0794 24.0732L77.7707 13.5067L98.161 3.30373Z" fill="#80C4F4"/>
<path fill-rule="evenodd" clip-rule="evenodd" d="M98.0676 27.0693L124.612 13.6909L124.588 19.6831L98.044 33.0615L98.0676 27.0693Z" fill="#1F5175"/>
<path d="M100.445 10.5801L99.3306 13.0584L99.3885 13.0961L103.502 12.565L105.273 13.7151L99.1798 14.4561L97.6646 18.1698L95.8611 16.9986L96.9541 14.5016L96.8961 14.464L92.7611 14.9854L90.9648 13.8189L97.1156 13.1155L98.667 9.42535L100.445 10.5801Z" fill="white"/>
</svg>
