<svg width="60" height="60" viewBox="0 0 60 60" fill="none" xmlns="http://www.w3.org/2000/svg">
<path d="M14.4001 22.5465C14.4001 22.5465 14.3949 22.5724 14.3949 22.5828C14.4415 22.5414 14.4932 22.5052 14.5501 22.4742L14.4001 22.5465ZM19.169 14.4466L20.012 14.0224C19.7276 14.1465 19.4432 14.2862 19.169 14.4466Z" fill="#002B4D" stroke="#229EFF" stroke-width="0.258621" stroke-linecap="round" stroke-linejoin="round"/>
<path d="M22.4425 9.24825C22.4425 9.94135 22.2407 10.4017 21.8321 10.6345L21.708 10.6965L16.6493 13.2258L12.5994 15.2483L11.4873 15.8069C11.8959 15.5741 12.0977 15.1138 12.0977 14.4207C12.0977 14.3741 12.0977 14.3327 12.0925 14.2862C12.077 13.8569 11.9839 13.4276 11.8132 12.9983C11.7253 12.7758 11.6166 12.5482 11.4873 12.3258C11.4304 12.2275 11.3684 12.1345 11.3063 12.0414C10.9339 11.4827 10.4891 11.0534 9.97181 10.7534L5.71491 8.29653C5.17698 7.98618 4.71148 7.90854 4.32873 8.05854L14.5494 2.94827C14.9529 2.72068 15.4597 2.77756 16.0597 3.12412L20.3166 5.58101C20.9166 5.92757 21.4235 6.45511 21.8321 7.15337C22.2407 7.85682 22.4425 8.55515 22.4425 9.24825Z" fill="#1F5175" stroke="#229EFF" stroke-width="0.258621" stroke-linecap="round" stroke-linejoin="round"/>
<path d="M12.098 33.9415C12.098 34.6347 11.8962 35.095 11.4876 35.3278C11.079 35.5606 10.5721 35.5036 9.9721 35.1571L5.71526 32.7002C5.11524 32.3536 4.60838 31.826 4.20493 31.1226C3.79631 30.4191 3.58932 29.7209 3.58932 29.0329C3.58932 28.345 3.79631 27.8795 4.20493 27.6468L4.32907 27.5847C4.71182 27.4295 5.17733 27.5071 5.71526 27.8174L9.9721 30.2743C10.5721 30.6209 11.079 31.1484 11.4876 31.8519C11.8962 32.5553 12.098 33.2484 12.098 33.9415Z" fill="#163D58" stroke="#229EFF" stroke-width="0.258621" stroke-linecap="round" stroke-linejoin="round"/>
<path d="M12.098 14.4208C12.098 15.1139 11.8962 15.5743 11.4876 15.807C11.079 16.0398 10.5721 15.9828 9.9721 15.6311L7.25141 14.0639L5.71526 13.1794C5.11524 12.8277 4.60838 12.3053 4.20493 11.6019C3.79631 10.8984 3.58932 10.2001 3.58932 9.50698C3.58932 8.81388 3.79631 8.35359 4.20493 8.12083L4.32907 8.05871C4.71182 7.90871 5.17733 7.98635 5.71526 8.29669L9.9721 10.7536C10.4893 11.0536 10.9342 11.4829 11.3066 12.0415C11.3687 12.1346 11.4307 12.2277 11.4876 12.3259C11.6169 12.5484 11.7256 12.7759 11.8135 12.9984C11.9842 13.4277 12.0773 13.857 12.0928 14.2863C12.098 14.3328 12.098 14.3742 12.098 14.4208Z" fill="#3074A4" stroke="#229EFF" stroke-width="0.258621" stroke-linecap="round" stroke-linejoin="round"/>
<path d="M18.9726 14.5657C17.7053 15.3312 16.6916 16.3761 15.9312 17.6899C15.1606 19.0295 14.6485 20.6484 14.4003 22.5467C14.4003 22.5467 14.3951 22.5726 14.3951 22.5829C14.3278 23.095 14.2813 23.6277 14.2606 24.1812L13.9657 24.326L11.4881 25.5675C11.8968 25.3347 12.0985 24.8743 12.0985 24.1812C12.0985 24.026 12.0882 23.8708 12.0675 23.7157C12.0003 23.1777 11.8037 22.6398 11.4881 22.0915C11.0795 21.3881 10.5726 20.8605 9.97263 20.514L3.58983 16.8312C3.0519 16.5157 2.58642 16.4381 2.19849 16.5933L7.25194 14.064L9.97263 15.6312C10.5726 15.9829 11.0795 16.0399 11.4881 15.8071L12.6003 15.2484L16.6502 13.2261L18.9726 14.5657Z" fill="#14364E" stroke="#229EFF" stroke-width="0.258621" stroke-linecap="round" stroke-linejoin="round"/>
<path d="M47.9534 41.0689C47.6483 38.9999 47.1052 36.9051 46.3293 34.7948C45.6414 32.9223 44.7724 31.0292 43.7069 29.1258C43.5672 28.8723 43.4223 28.6188 43.2775 28.3654C42.093 26.3223 40.8207 24.4706 39.4552 22.8103C37.0086 19.8258 34.2673 17.4568 31.2362 15.7086C29.2966 14.5861 27.4759 13.8568 25.7742 13.5155C23.6742 13.081 21.7655 13.2516 20.0379 14.012L20.012 14.0223L19.169 14.4465C19.1018 14.4827 19.0396 14.5241 18.9723 14.5655C17.7051 15.331 16.6914 16.3758 15.931 17.6896C15.1603 19.0293 14.6483 20.6482 14.4 22.5464L14.55 22.4741C14.4931 22.5052 14.4414 22.5413 14.3949 22.5827C14.3276 23.0948 14.2811 23.6275 14.2604 24.181C14.2345 24.5379 14.2241 24.9051 14.2241 25.2827V25.4068C14.2241 28.0396 14.6121 30.6982 15.3776 33.3827C16.2 36.2586 17.4621 39.1706 19.169 42.1137C22.4638 47.7982 26.488 52.0137 31.2362 54.7551C35.9535 57.4758 39.9672 57.8999 43.2775 56.0327C44.9689 55.081 46.2258 53.6637 47.0534 51.7758C47.85 49.9706 48.2483 47.7258 48.2483 45.0517C48.2483 43.7327 48.15 42.4034 47.9534 41.0689ZM37.6189 46.2361C37.4638 46.3241 37.2983 46.3758 37.1172 46.3861C36.8121 46.4068 36.4758 46.3086 36.1034 46.0913C35.5189 45.7551 35.0121 45.2172 34.588 44.4879L33.6207 42.8223L29.7465 36.1396C29.5707 35.8344 29.4207 35.493 29.2966 35.1155C29.1724 34.743 29.1103 34.3913 29.1103 34.0655V26.6844C29.1103 25.9913 29.3172 25.531 29.7207 25.2982C30.1293 25.0655 30.6362 25.1223 31.2362 25.4689C31.8414 25.8155 32.3431 26.343 32.7518 27.0465C33.1604 27.7499 33.3621 28.4482 33.3621 29.1361V35.4827L37.6189 42.7603C38.0431 43.4896 38.2552 44.193 38.2552 44.8654C38.2552 45.5379 38.0431 45.993 37.6189 46.2361Z" fill="url(#paint0_linear_37_49)" stroke="#229EFF" stroke-width="0.258621" stroke-linecap="round" stroke-linejoin="round"/>
<path d="M38.2553 44.8654C38.2553 45.5378 38.0432 45.993 37.6191 46.2361C37.4639 46.3241 37.2984 46.3758 37.1174 46.3861C36.8122 46.4068 36.476 46.3085 36.1036 46.0912C35.5191 45.755 35.0123 45.2172 34.5881 44.4879L33.6208 42.8223L29.7467 36.1396C29.5708 35.8344 29.4209 35.493 29.2968 35.1154C29.1726 34.743 29.1105 34.3912 29.1105 34.0654V26.6844C29.1105 25.9912 29.3173 25.531 29.7208 25.2982C30.1294 25.0654 30.6364 25.1223 31.2364 25.4688C31.8416 25.8154 32.3433 26.343 32.7519 27.0465C33.1605 27.7499 33.3622 28.4481 33.3622 29.1361V35.4826L37.6191 42.7603C38.0432 43.4896 38.2553 44.193 38.2553 44.8654Z" fill="#80C4F4" stroke="#229EFF" stroke-width="0.258621" stroke-linecap="round" stroke-linejoin="round"/>
<path d="M58.593 39.8791C58.593 45.3308 56.9378 48.9929 53.6223 50.8601L52.8723 51.2325L43.2776 56.0326C44.969 55.0809 46.2259 53.6636 47.0535 51.7757C47.85 49.9705 48.2483 47.7257 48.2483 45.0515C48.2483 43.7325 48.15 42.4032 47.9535 41.0688C47.6483 38.9998 47.1052 36.905 46.3294 34.7946C45.6414 32.9222 44.7724 31.0292 43.7069 29.1257C43.5672 28.8723 43.4224 28.6188 43.2776 28.3653C42.0931 26.3222 40.8207 24.4705 39.4552 22.8101C37.0087 19.8256 34.2674 17.4567 31.2363 15.7084C29.2967 14.586 27.4759 13.8567 25.7742 13.5153C23.6742 13.0808 21.7655 13.2515 20.0379 14.0119L29.5138 9.27398C32.8087 7.3757 36.8329 7.79461 41.5811 10.536C46.2984 13.2567 50.3121 17.4774 53.6223 23.1929C56.9378 28.9084 58.593 34.4739 58.593 39.8791Z" fill="#1F5175" stroke="#229EFF" stroke-width="0.258621" stroke-linecap="round" stroke-linejoin="round"/>
<path d="M12.0984 33.9415C12.0984 33.2484 11.8966 32.5553 11.488 31.8519C11.0793 31.1484 10.5724 30.6208 9.97244 30.2743L5.71555 27.8174C5.17762 27.507 4.71216 27.4295 4.3294 27.5846L9.38801 25.0554L9.97244 25.3915C10.5724 25.7433 11.0793 25.8002 11.488 25.5674L13.9655 24.326L14.2604 24.1812C14.2346 24.5381 14.2242 24.9053 14.2242 25.2829V25.407C14.2242 28.0398 14.6121 30.6984 15.3776 33.3829L11.488 35.3277C11.8966 35.095 12.0984 34.6346 12.0984 33.9415Z" fill="#0E283B" stroke="#229EFF" stroke-width="0.258621" stroke-linecap="round" stroke-linejoin="round"/>
<path d="M12.0982 24.1811C12.0982 24.8742 11.8964 25.3346 11.4878 25.5674C11.0792 25.8001 10.5723 25.7432 9.9723 25.3914L9.38787 25.0553L3.58951 21.7087C2.98951 21.3621 2.48265 20.8346 2.07403 20.1363C1.67058 19.4329 1.46372 18.7346 1.46372 18.0415C1.46372 17.3484 1.67058 16.888 2.07403 16.6553L2.19816 16.5932C2.58609 16.438 3.05158 16.5156 3.58951 16.8311L9.9723 20.5139C10.5723 20.8605 11.0792 21.388 11.4878 22.0914C11.8033 22.6397 11.9999 23.1777 12.0672 23.7156C12.0879 23.8707 12.0982 24.026 12.0982 24.1811Z" fill="#20557A" stroke="#229EFF" stroke-width="0.258621" stroke-linecap="round" stroke-linejoin="round"/>
<defs>
<linearGradient id="paint0_linear_37_49" x1="31.2362" y1="13.2808" x2="31.2362" y2="57.1736" gradientUnits="userSpaceOnUse">
<stop stop-color="#459EDD"/>
<stop offset="1" stop-color="#255577"/>
</linearGradient>
</defs>
</svg>
