<svg width="74" height="79" viewBox="0 0 74 79" fill="none" xmlns="http://www.w3.org/2000/svg">
<path fill-rule="evenodd" clip-rule="evenodd" d="M5.00046 62.0882C5.00046 62.013 5.0014 61.9378 5.00327 61.8627C5.00203 61.9128 4.99963 61.9628 5.00005 62.013C5.00026 62.038 5.00046 62.0631 5.00046 62.0882Z" fill="#D9D9D9"/>
<path fill-rule="evenodd" clip-rule="evenodd" d="M5.00327 49.6863L5.00046 49.9118C5.00046 49.8365 5.0014 49.7613 5.00327 49.6863ZM69.4907 49.9118V49.6863C69.4925 49.7613 69.4907 49.8365 69.4907 49.9118Z" fill="#D9D9D9"/>
<path fill-rule="evenodd" clip-rule="evenodd" d="M69.4907 49.9118C69.4907 49.8867 69.4909 49.8616 69.4911 49.8365C69.4915 49.7864 69.4919 49.7363 69.4907 49.6863C69.4925 49.7613 69.4907 49.8365 69.4907 49.9118ZM5.00327 49.6863C5.00203 49.7363 4.99963 49.7864 5.00005 49.8365C5.00026 49.8616 5.00046 49.8867 5.00046 49.9118C5.00046 49.8365 5.0014 49.7613 5.00327 49.6863Z" fill="#D9D9D9"/>
<path d="M37.2456 33C19.5806 33 5.23339 40.4501 5.00327 49.6863C5.0014 49.7613 5.00046 49.8365 5.00046 49.9118C5.00046 52.058 5.76277 54.1109 7.15312 56C8.78558 58.218 11.2839 60.2103 14.4307 61.8627C20.267 64.9275 28.3341 66.8235 37.2456 66.8235C46.157 66.8235 54.2241 64.9275 60.0605 61.8627C63.2073 60.2103 65.7056 58.218 67.338 56C68.7284 54.1109 69.4907 52.058 69.4907 49.9118C69.4907 49.8365 69.4925 49.7613 69.4907 49.6863C69.2605 40.4501 54.9105 33 37.2456 33Z" fill="#D9D9D9"/>
<path fill-rule="evenodd" clip-rule="evenodd" d="M67.338 56C68.7284 54.1109 69.4907 52.058 69.4907 49.9118L69.4879 61.8627C69.4897 61.9378 69.4907 62.013 69.4907 62.0882C69.4907 71.4283 55.054 79 37.2456 79C19.4371 79 5.00046 71.4283 5.00046 62.0882C5.00046 62.013 5.0014 61.9378 5.00327 61.8627L5.00046 49.9118C5.00046 52.058 5.76277 54.1109 7.15312 56C8.78558 58.218 11.2839 60.2103 14.4307 61.8627C20.267 64.9275 28.3341 66.8235 37.2456 66.8235C46.157 66.8235 54.2241 64.9275 60.0605 61.8627C63.2073 60.2103 65.7056 58.218 67.338 56Z" fill="#002A47"/>
<path d="M37.2458 33C54.9106 33.0001 69.2608 40.4504 69.4909 49.6865C69.4927 49.7615 69.4909 49.8369 69.4909 49.9121C69.4908 52.0582 68.7278 54.111 67.3376 56C65.7051 58.218 63.2069 60.2099 60.0602 61.8623C54.2239 64.9271 46.1571 66.8232 37.2458 66.8232C28.3343 66.8232 20.2667 64.9271 14.4303 61.8623C11.2837 60.2099 8.78538 58.218 7.15298 56C5.76272 54.111 5.00072 52.0582 5.00064 49.9121C5.00064 49.8369 5.0017 49.7615 5.00357 49.6865C5.23369 40.4503 19.5808 33 37.2458 33ZM37.2448 36.1572C22.792 36.1573 11.0542 42.2165 10.8659 49.7285C10.8643 49.7895 10.8629 49.8509 10.8629 49.9121C10.863 51.6576 11.4872 53.3269 12.6247 54.8633C13.9603 56.6673 16.0042 58.2878 18.5788 59.6318C23.3538 62.1245 29.9539 63.6669 37.2448 63.667C44.5359 63.667 51.1367 62.1245 55.9118 59.6318C58.4863 58.2879 60.5303 56.6673 61.8659 54.8633C63.0033 53.327 63.6275 51.6576 63.6276 49.9121C63.6276 49.8509 63.6291 49.7895 63.6276 49.7285C63.4393 42.2164 51.6977 36.1572 37.2448 36.1572Z" fill="#86A4BA"/>
<g filter="url(#filter0_i_20_31)">
<path d="M37.2452 36.1569C22.7923 36.1569 11.0538 42.2163 10.8655 49.7284C10.864 49.7894 10.8632 49.8505 10.8632 49.9118C10.8632 51.6574 11.4869 53.3271 12.6244 54.8635C13.9601 56.6675 16.0041 58.2879 18.5787 59.6319C23.3538 62.1246 29.9541 63.6667 37.2452 63.6667C44.5363 63.6667 51.1366 62.1246 55.9117 59.6319C58.4863 58.2879 60.5303 56.6675 61.866 54.8635C63.0035 53.3271 63.6272 51.6574 63.6272 49.9118C63.6272 49.8505 63.6287 49.7894 63.6272 49.7284C63.4389 42.2163 51.6982 36.1569 37.2452 36.1569Z" fill="#AAC2D3"/>
</g>
<g filter="url(#filter1_d_20_31)">
<path d="M35.532 45.8338C36.6378 45.3665 37.9985 45.7196 38.5711 46.6222C39.1436 47.5248 38.7111 48.6356 37.6054 49.103L24.9786 54.4407C23.8729 54.908 22.5121 54.5549 21.9395 53.6523C21.3671 52.7497 21.7996 51.6389 22.9053 51.1715L35.532 45.8338Z" fill="#003356"/>
</g>
<g filter="url(#filter2_d_20_31)">
<path d="M35.217 49.2215C34.1474 48.5866 33.7967 47.2054 34.4338 46.1362C35.0708 45.067 36.4541 44.7151 37.5238 45.35L46.0872 50.4327C47.1567 51.0677 47.5073 52.4489 46.8704 53.518C46.2334 54.5872 44.8497 54.9393 43.78 54.3044L35.217 49.2215Z" fill="#00416F"/>
</g>
<path d="M36.3436 47.2059L38.1475 37.9608" stroke="#80C1EE" stroke-width="1.80392" stroke-linecap="round"/>
<g filter="url(#filter3_d_20_31)">
<path d="M16.0651 33.6872C21.9668 36.4758 29.3653 38 37.0001 38V33.8149C31.047 33.8149 25.2782 32.6265 20.6764 30.4521C16.0746 28.2777 12.9247 25.2519 11.7633 21.8902C10.602 18.5286 11.501 15.0391 14.3072 12.0163C17.1135 8.99353 21.6533 6.62448 27.1532 5.31283C32.6531 4.00118 38.7727 3.82809 44.4694 4.82304C50.1661 5.81799 55.0874 7.91943 58.3947 10.7693C61.702 13.6192 63.1908 17.0411 62.6073 20.4521C62.0845 23.5083 59.927 26.3863 56.456 28.6953L54.5002 27.5L53.0002 33L63.5001 33L61.4607 31.7537C66.2001 28.7407 69.1463 24.9242 69.8411 20.8623C70.5895 16.4877 68.6802 12.0991 64.4385 8.44417C60.1969 4.78923 53.8854 2.09415 46.5794 0.818137C39.2735 -0.457881 31.4251 -0.235886 24.3715 1.4463C17.3179 3.12848 11.4956 6.16676 7.89665 10.0435C4.29767 13.9202 3.14468 18.3954 4.63414 22.7067C6.1236 27.018 10.1634 30.8986 16.0651 33.6872Z" fill="url(#paint0_linear_20_31)" shape-rendering="crispEdges"/>
</g>
<defs>
<filter id="filter0_i_20_31" x="10.8632" y="36.1569" width="52.7647" height="27.5098" filterUnits="userSpaceOnUse" color-interpolation-filters="sRGB">
<feFlood flood-opacity="0" result="BackgroundImageFix"/>
<feBlend mode="normal" in="SourceGraphic" in2="BackgroundImageFix" result="shape"/>
<feColorMatrix in="SourceAlpha" type="matrix" values="0 0 0 0 0 0 0 0 0 0 0 0 0 0 0 0 0 0 127 0" result="hardAlpha"/>
<feOffset dy="4"/>
<feComposite in2="hardAlpha" operator="arithmetic" k2="-1" k3="1"/>
<feColorMatrix type="matrix" values="0 0 0 0 0.206002 0 0 0 0 0.363086 0 0 0 0 0.615785 0 0 0 0.4 0"/>
<feBlend mode="normal" in2="shape" result="effect1_innerShadow_20_31"/>
</filter>
<filter id="filter1_d_20_31" x="21.6867" y="45.6274" width="17.1373" height="9.92157" filterUnits="userSpaceOnUse" color-interpolation-filters="sRGB">
<feFlood flood-opacity="0" result="BackgroundImageFix"/>
<feColorMatrix in="SourceAlpha" type="matrix" values="0 0 0 0 0 0 0 0 0 0 0 0 0 0 0 0 0 0 127 0" result="hardAlpha"/>
<feOffset dy="0.901961"/>
<feComposite in2="hardAlpha" operator="out"/>
<feColorMatrix type="matrix" values="0 0 0 0 0 0 0 0 0 0 0 0 0 0 0 0 0 0 0.25 0"/>
<feBlend mode="normal" in2="BackgroundImageFix" result="effect1_dropShadow_20_31"/>
<feBlend mode="normal" in="SourceGraphic" in2="effect1_dropShadow_20_31" result="shape"/>
</filter>
<filter id="filter2_d_20_31" x="34.116" y="45.034" width="13.0722" height="10.4883" filterUnits="userSpaceOnUse" color-interpolation-filters="sRGB">
<feFlood flood-opacity="0" result="BackgroundImageFix"/>
<feColorMatrix in="SourceAlpha" type="matrix" values="0 0 0 0 0 0 0 0 0 0 0 0 0 0 0 0 0 0 127 0" result="hardAlpha"/>
<feOffset dy="0.901961"/>
<feComposite in2="hardAlpha" operator="out"/>
<feColorMatrix type="matrix" values="0 0 0 0 0 0 0 0 0 0 0 0 0 0 0 0 0 0 0.25 0"/>
<feBlend mode="normal" in2="BackgroundImageFix" result="effect1_dropShadow_20_31"/>
<feBlend mode="normal" in="SourceGraphic" in2="effect1_dropShadow_20_31" result="shape"/>
</filter>
<filter id="filter3_d_20_31" x="0" y="0" width="74.0001" height="46" filterUnits="userSpaceOnUse" color-interpolation-filters="sRGB">
<feFlood flood-opacity="0" result="BackgroundImageFix"/>
<feColorMatrix in="SourceAlpha" type="matrix" values="0 0 0 0 0 0 0 0 0 0 0 0 0 0 0 0 0 0 127 0" result="hardAlpha"/>
<feOffset dy="4"/>
<feGaussianBlur stdDeviation="2"/>
<feComposite in2="hardAlpha" operator="out"/>
<feColorMatrix type="matrix" values="0 0 0 0 0.231373 0 0 0 0 0.529412 0 0 0 0 0.737255 0 0 0 0.15 0"/>
<feBlend mode="normal" in2="BackgroundImageFix" result="effect1_dropShadow_20_31"/>
<feBlend mode="normal" in="SourceGraphic" in2="effect1_dropShadow_20_31" result="shape"/>
</filter>
<linearGradient id="paint0_linear_20_31" x1="72" y1="36" x2="-53" y2="-23" gradientUnits="userSpaceOnUse">
<stop stop-color="#46A4E6"/>
<stop offset="1" stop-color="#15242E" stop-opacity="0"/>
</linearGradient>
</defs>
</svg>
