<svg width="63" height="63" viewBox="0 0 63 63" fill="none" xmlns="http://www.w3.org/2000/svg">
<path d="M34.6401 60.2907C34.6401 60.966 34.4436 61.4146 34.0454 61.6414C33.6473 61.8682 33.1533 61.8127 32.5637 61.4751C31.974 61.1323 31.4801 60.6183 31.0819 59.9328C30.6837 59.2474 30.4872 58.567 30.4872 57.8916C30.4872 57.2163 30.6837 56.7627 31.0819 56.5359L31.2079 56.4754C31.5809 56.3242 32.0345 56.3998 32.5637 56.7022C33.1533 57.0449 33.6473 57.559 34.0454 58.2444C34.4436 58.9299 34.6401 59.6153 34.6401 60.2907Z" fill="#163D58" stroke="#229EFF" stroke-width="0.252" stroke-linecap="round" stroke-linejoin="round"/>
<path d="M22.1711 53.0887C22.1711 53.764 21.9745 54.2176 21.5713 54.4444C21.1731 54.6712 20.6792 54.6158 20.0946 54.2731C19.5049 53.9354 19.011 53.4213 18.6128 52.7359C18.2147 52.0454 18.0131 51.365 18.0131 50.6896C18.0131 50.0144 18.2147 49.5608 18.6128 49.334L18.7338 49.2735C19.1118 49.1223 19.5654 49.1979 20.0946 49.5053C20.6792 49.843 21.1731 50.3571 21.5713 51.0475C21.9745 51.7329 22.1711 52.4133 22.1711 53.0887Z" fill="#163D58" stroke="#229EFF" stroke-width="0.252" stroke-linecap="round" stroke-linejoin="round"/>
<path d="M15.9365 39.9494C15.9365 40.6248 15.7349 41.0784 15.3368 41.3052C14.9386 41.532 14.4447 41.4765 13.855 41.1338C13.2704 40.7961 12.7765 40.282 12.3783 39.5916C11.9801 38.9061 11.7785 38.2257 11.7785 37.5504C11.7785 36.875 11.9801 36.4214 12.3783 36.1946L12.4993 36.1341C12.8773 35.9829 13.3309 36.0585 13.855 36.366C14.4447 36.7036 14.9386 37.2177 15.3368 37.9032C15.7349 38.5936 15.9365 39.274 15.9365 39.9494Z" fill="#20557A" stroke="#229EFF" stroke-width="0.252" stroke-linecap="round" stroke-linejoin="round"/>
<path d="M44.72 55.2509C44.72 55.9263 44.5234 56.3748 44.1253 56.6016L43.9993 56.6621L34.0453 61.6416C34.4434 61.4148 34.64 60.9663 34.64 60.2909C34.64 59.6156 34.4434 58.9301 34.0453 58.2447C33.6471 57.5592 33.1532 57.0452 32.5635 56.7024C32.0343 56.4 31.5807 56.3244 31.2078 56.4756L37.0794 53.5373C37.1499 53.6885 37.2255 53.8397 37.3162 53.996C37.7144 54.6814 38.2083 55.1955 38.798 55.5332C39.3877 55.8759 39.8816 55.9313 40.2798 55.7045L41.3432 55.1753L44.3622 53.6633C44.599 54.1976 44.72 54.7268 44.72 55.2509Z" fill="#0E283B" stroke="#229EFF" stroke-width="0.252" stroke-linecap="round" stroke-linejoin="round"/>
<path d="M32.2509 48.049C32.2509 48.7244 32.0544 49.178 31.6512 49.4048L21.5712 54.4447C21.9744 54.2179 22.1709 53.7643 22.1709 53.0889C22.1709 52.4136 21.9744 51.7332 21.5712 51.0477C21.173 50.3573 20.6791 49.8433 20.0944 49.5056C19.5652 49.1981 19.1116 49.1225 18.7336 49.2737L24.6103 46.3354C24.6808 46.4866 24.7564 46.6429 24.8472 46.7941C25.2453 47.4795 25.7392 47.9936 26.3289 48.3363C26.9186 48.674 27.4125 48.7294 27.8107 48.5026L28.8691 47.9734L31.888 46.4665C32.13 46.9957 32.2509 47.5249 32.2509 48.049Z" fill="#0E283B" stroke="#229EFF" stroke-width="0.252" stroke-linecap="round" stroke-linejoin="round"/>
<path d="M28.4054 47.1164V47.1517C28.4054 47.8271 28.2088 48.2756 27.8107 48.5024C27.4125 48.7292 26.9186 48.6738 26.3289 48.3361C25.7392 47.9934 25.2453 47.4793 24.8471 46.7939C24.7564 46.6427 24.6808 46.4865 24.6103 46.3353C24.3683 45.801 24.2474 45.2718 24.2474 44.7476C24.2474 44.0723 24.449 43.6237 24.8471 43.3969L24.9731 43.3364C25.3461 43.1852 25.7997 43.2609 26.3289 43.5633C26.8329 43.8556 27.2663 44.2739 27.6292 44.8233C27.6947 44.914 27.7552 45.0047 27.8107 45.1055C27.9215 45.297 28.0173 45.4835 28.0929 45.675C28.2995 46.1538 28.4003 46.6376 28.4054 47.1164Z" fill="#20557A" stroke="#229EFF" stroke-width="0.252" stroke-linecap="round" stroke-linejoin="round"/>
<path d="M50.9593 49.3088C50.9593 49.9842 50.7577 50.4377 50.3596 50.6645L50.2386 50.7249L44.362 53.6633L41.343 55.1753L40.2796 55.7045C40.6777 55.4777 40.8793 55.0241 40.8793 54.3487V54.3235C40.8743 53.8447 40.7735 53.3659 40.5669 52.8821C40.4862 52.6906 40.3905 52.499 40.2796 52.3025C40.2241 52.2067 40.1637 52.1109 40.1032 52.0253C39.7403 51.4759 39.3069 51.0576 38.7978 50.7653C38.2686 50.4578 37.815 50.3823 37.437 50.5334L40.6021 48.951C42.0083 49.2685 43.2683 49.1072 44.3771 48.4722L46.8165 47.2525L49.2961 46.0126C49.7044 46.3302 50.0572 46.7485 50.3545 47.2626C50.7527 47.9531 50.9543 48.6334 50.9543 49.3088H50.9593Z" fill="#14364E" stroke="#229EFF" stroke-width="0.252" stroke-linecap="round" stroke-linejoin="round"/>
<path d="M57.1941 37.4046C57.1941 40.3883 56.2818 42.3992 54.4623 43.4324L54.0138 43.6542L49.3014 46.0129L46.8217 47.2527L44.3823 48.4724C45.35 47.9231 46.0607 47.0965 46.5092 45.9978C46.9124 45.0301 47.114 43.8407 47.114 42.4446V42.3236C47.0888 39.5466 46.2723 36.6889 44.6696 33.7607C43.0417 30.7971 41.0307 28.5039 38.6418 26.8861L48.7218 21.8461C51.1107 23.4639 53.1217 25.7571 54.7496 28.7207C56.3776 31.6892 57.1941 34.5872 57.1941 37.4046Z" fill="#1F5175" stroke="#229EFF" stroke-width="0.252" stroke-linecap="round" stroke-linejoin="round"/>
<path d="M47.1141 42.3234V42.4444C47.1141 43.8405 46.9125 45.0299 46.5093 45.9976C46.0608 47.0963 45.3501 47.9229 44.3825 48.4722C43.2737 49.1073 42.0137 49.2685 40.6075 48.951C39.7154 48.7545 38.7729 48.3664 37.7649 47.7817L33.8186 45.5037L27.7001 41.9706L21.3446 38.3015L16.98 35.7815C16.4205 35.4589 15.8762 35.1011 15.347 34.713C12.8875 32.9188 10.7354 30.4391 8.90086 27.2689C6.6631 23.4133 5.54422 19.6787 5.54422 16.06C5.54422 12.7638 6.49678 10.4303 8.4019 9.06446C8.69422 8.85782 8.99662 8.67638 9.3091 8.53022C11.0378 7.70366 13.0891 7.79438 15.468 8.7923C15.6041 8.5907 15.7502 8.39918 15.9014 8.21774C16.4457 7.57262 17.0606 7.0787 17.7561 6.72086C17.8569 6.67046 17.9577 6.62006 18.0585 6.5747C18.6533 6.31262 19.3034 6.1463 20.0141 6.08078C21.9393 5.89934 24.041 6.46886 26.3292 7.78934C29.4439 9.58862 32.1554 12.2951 34.4587 15.9138C36.762 19.5275 38.1581 23.1865 38.6419 26.8859C41.0309 28.5037 43.0418 30.7969 44.6697 33.7605C46.2725 36.6887 47.0889 39.5464 47.1141 42.3234Z" fill="url(#paint0_linear_38_268)" stroke="#229EFF" stroke-width="0.252" stroke-linecap="round" stroke-linejoin="round"/>
<path d="M24.4944 3.3695L21.0672 5.073L17.7559 6.72108C17.0604 7.07892 16.4455 7.57284 15.9012 8.21292C15.75 8.3994 15.6038 8.59092 15.4677 8.79252C13.0889 7.7946 11.0376 7.70388 9.30887 8.53044L19.2225 3.57614L19.2679 3.55094C20.7597 2.79494 22.4985 2.72942 24.4843 3.36446C24.4843 3.36446 24.4877 3.36614 24.4944 3.3695Z" fill="#1F5175" stroke="#229EFF" stroke-width="0.252" stroke-linecap="round" stroke-linejoin="round"/>
<path d="M21.067 5.07292L18.0581 6.57484C17.9573 6.6202 17.8565 6.6706 17.7557 6.721L21.067 5.07292Z" fill="#229EFF" stroke="#229EFF" stroke-width="0.252" stroke-linecap="round" stroke-linejoin="round"/>
<path d="M40.8794 54.3239V54.3491C40.8794 55.0244 40.6778 55.478 40.2797 55.7048C39.8815 55.9316 39.3876 55.8762 38.7979 55.5335C38.2082 55.1958 37.7143 54.6817 37.3162 53.9963C37.2254 53.84 37.1498 53.6888 37.0793 53.5376C36.8424 53.0034 36.7214 52.4742 36.7214 51.95C36.7214 51.2747 36.918 50.8211 37.3162 50.5943L37.4371 50.5338C37.8151 50.3827 38.2687 50.4582 38.7979 50.7656C39.307 51.0579 39.7404 51.4763 40.1033 52.0256C40.1638 52.1113 40.2242 52.2071 40.2797 52.3028C40.3906 52.4994 40.4863 52.6909 40.567 52.8824C40.7736 53.3663 40.8744 53.8451 40.8794 54.3239Z" fill="#20557A" stroke="#229EFF" stroke-width="0.252" stroke-linecap="round" stroke-linejoin="round"/>
<path d="M33.8132 45.504L31.8879 46.4666L28.8689 47.9736L27.8105 48.5028C28.2087 48.276 28.4053 47.8274 28.4053 47.152V47.1168C28.4002 46.638 28.2994 46.1541 28.0928 45.6753C28.0172 45.4838 27.9214 45.2973 27.8105 45.1058C27.7551 45.005 27.6946 44.9143 27.6291 44.8236C27.2662 44.2742 26.8328 43.8559 26.3288 43.5636C25.7996 43.2612 25.346 43.1856 24.973 43.3368L27.6946 41.9709L33.8132 45.504Z" fill="#14364E" stroke="#229EFF" stroke-width="0.252" stroke-linecap="round" stroke-linejoin="round"/>
<path d="M15.9364 39.9493C15.9364 39.274 15.7348 38.5936 15.3366 37.9031C14.9385 37.2176 14.4446 36.7036 13.8549 36.3659C13.3307 36.0584 12.8771 35.9828 12.4991 36.134L15.3417 34.7128C15.8709 35.1008 16.4152 35.4587 16.9746 35.7812L21.3393 38.3012L15.3366 41.3051C15.7348 41.0783 15.9364 40.6247 15.9364 39.9493Z" fill="#14364E" stroke="#229EFF" stroke-width="0.252" stroke-linecap="round" stroke-linejoin="round"/>
<path d="M48.7216 21.846L38.6416 26.886C38.1578 23.1866 36.7617 19.5276 34.4584 15.9139C32.1552 12.2952 29.4436 9.58873 26.3289 7.78945C24.0408 6.46897 21.9391 5.89945 20.0138 6.08089C19.3032 6.14641 18.653 6.31273 18.0583 6.57481L21.0672 5.07289L24.4944 3.36939L27.4478 1.8977C28.2189 1.4189 29.106 1.13666 30.0938 1.0409C32.0191 0.859464 34.1208 1.42899 36.4089 2.74947C39.5236 4.54874 42.2352 7.25521 44.5384 10.8739C46.8417 14.4876 48.2378 18.1466 48.7216 21.846Z" fill="#1F5175" stroke="#229EFF" stroke-width="0.252" stroke-linecap="round" stroke-linejoin="round"/>
<path d="M17.7558 6.72098L17.6802 6.75626Z" fill="#1F5175"/>
<path d="M17.7558 6.72098L17.6802 6.75626" stroke="#229EFF" stroke-width="0.252" stroke-linecap="round" stroke-linejoin="round"/>
<defs>
<linearGradient id="paint0_linear_38_268" x1="26.8333" y1="16.3334" x2="26.1923" y2="82.8321" gradientUnits="userSpaceOnUse">
<stop stop-color="#3074A4"/>
<stop offset="1" stop-color="#122C3E"/>
</linearGradient>
</defs>
</svg>
