<svg width="66" height="66" viewBox="0 0 66 66" fill="none" xmlns="http://www.w3.org/2000/svg">
<path d="M49.5435 42.5628C49.5655 43.3108 49.3456 43.8388 48.8909 44.1468L43.4862 48.0187L32.787 55.6821C32.7283 55.7261 32.6696 55.7627 32.611 55.7994L32.3248 55.9461C31.4595 56.3421 30.4329 56.2247 29.2449 55.6014C27.8296 54.8534 26.6122 53.5921 25.5709 51.8027L19.7703 41.7928L19.4256 41.1988L19.3596 41.0814L19.279 41.1254L6.29886 48.5247C5.76353 48.8327 5.14017 48.7814 4.43617 48.3707C3.73217 47.9674 3.10897 47.3001 2.56631 46.3687C2.03097 45.4374 1.75957 44.5721 1.75957 43.7654C1.75957 42.9588 2.03097 42.3941 2.56631 42.0861L15.8102 34.5401L16.1036 34.3934C16.6536 34.1734 17.2696 34.1514 17.959 34.3421C18.3916 34.4594 18.8609 34.6574 19.3596 34.9434C20.7676 35.7574 21.9483 36.9894 22.9016 38.6321L23.5396 39.7247L29.3036 49.6761L39.1596 42.5994L42.6649 40.0841L45.2169 38.2507C45.2682 38.2141 45.3196 38.1774 45.3709 38.1481L45.437 38.1114C45.4956 38.0894 45.5543 38.0674 45.6203 38.0454H45.635C46.0236 37.9354 46.4708 38.0454 46.9915 38.3461C47.4242 38.5954 47.8129 38.9254 48.1649 39.3288C48.4069 39.6001 48.6195 39.9154 48.8248 40.2601C49.2795 41.0448 49.5215 41.8148 49.5435 42.5628Z" fill="#163D58" stroke="#229EFF" stroke-width="0.366667" stroke-linecap="round" stroke-linejoin="round"/>
<path d="M19.3593 23.958L19.2787 24.0094C19.3301 24.0387 19.374 24.0607 19.4253 24.0754L19.3593 23.958Z" fill="#002B4D" stroke="#229EFF" stroke-width="0.366667" stroke-linecap="round" stroke-linejoin="round"/>
<path d="M64.2103 18.1061C64.2323 18.8541 64.0124 19.3821 63.5577 19.6901L47.4537 31.2254C47.3071 31.3281 47.1603 31.4161 46.999 31.4894L39.7684 35.1047L32.6111 38.6761C32.6697 38.6394 32.7284 38.6027 32.7871 38.5587L35.6323 36.5201L39.1377 34.0121L43.4863 30.8954L48.8911 27.0234C49.3457 26.7154 49.5657 26.1874 49.5437 25.4394C49.5217 24.6914 49.2797 23.9214 48.825 23.1367C48.6197 22.7921 48.4071 22.4767 48.1651 22.2054C47.8131 21.8021 47.4243 21.4721 46.9917 21.2227C46.471 20.9221 46.0237 20.8121 45.6351 20.9221H45.6204C45.5544 20.9441 45.4957 20.9661 45.4371 20.9881L60.0083 13.7134L60.1184 13.6547C60.5364 13.4567 61.0497 13.5374 61.6583 13.8894C62.3843 14.3074 62.993 14.9454 63.4917 15.8034C63.9463 16.5881 64.1883 17.3581 64.2103 18.1061Z" fill="#14364E" stroke="#229EFF" stroke-width="0.366667" stroke-linecap="round" stroke-linejoin="round"/>
<path d="M49.5435 25.4394C49.5655 26.1874 49.3456 26.7154 48.8909 27.0234L43.4862 30.8954L39.1376 34.012L35.6322 36.52L32.787 38.5587C32.7283 38.6027 32.6696 38.6394 32.611 38.676L32.5669 38.7054L32.2957 38.8374L32.237 38.8667C31.3936 39.2114 30.3962 39.0867 29.2449 38.478C28.6949 38.1847 28.167 37.818 27.6756 37.3634C26.9056 36.6667 26.2089 35.772 25.5709 34.6794L23.5322 31.1594L23.3195 30.7854L19.7703 24.6694L19.4256 24.0754L19.3596 23.958L19.279 24.0094L6.29886 31.4014C5.76353 31.7094 5.14017 31.658 4.43617 31.2547C3.73217 30.844 3.10897 30.1767 2.56631 29.2454C2.03097 28.3214 1.75957 27.4487 1.75957 26.642C1.75957 25.8354 2.03097 25.2707 2.56631 24.97L15.8102 17.4167L16.1036 17.27C16.6536 17.05 17.277 17.028 17.9663 17.2187C18.399 17.336 18.8609 17.5414 19.3596 17.82C20.7676 18.634 21.9483 19.866 22.9016 21.5087L23.5396 22.6014L27.1624 28.864L27.2649 29.04L29.3036 32.5527L35.1262 28.3727L39.1596 25.476L42.6649 22.9607L45.2169 21.1274C45.2682 21.0907 45.3196 21.054 45.3709 21.0247L45.437 20.988C45.4956 20.966 45.5543 20.944 45.6203 20.922H45.635C46.0236 20.812 46.4708 20.922 46.9915 21.2227C47.4242 21.472 47.8129 21.802 48.1649 22.2054C48.4069 22.4767 48.6195 22.792 48.8248 23.1367C49.2795 23.9214 49.5215 24.6914 49.5435 25.4394Z" fill="#3074A4" stroke="#229EFF" stroke-width="0.366667" stroke-linecap="round" stroke-linejoin="round"/>
<path d="M42.6645 22.9606L39.1591 25.476L35.1258 28.3726L29.3032 32.5526L27.2645 29.04L27.162 28.864L23.5391 22.6013L22.9012 21.5086C21.9479 19.866 20.7671 18.634 19.3591 17.82C18.8605 17.5413 18.3985 17.336 17.9659 17.2186C17.2765 17.028 16.6532 17.05 16.1032 17.27L30.4764 10.0833C31.4297 9.54062 32.6105 9.67263 34.0258 10.4866C35.4338 11.3006 36.6145 12.5326 37.5679 14.1753L42.6645 22.9606Z" fill="#1F5175" stroke="#229EFF" stroke-width="0.366667" stroke-linecap="round" stroke-linejoin="round"/>
<path d="M42.6645 40.0841L39.1591 42.5994L29.3032 49.6761L23.5391 39.7248L22.9012 38.6321C21.9479 36.9894 20.7671 35.7574 19.3591 34.9434C18.8605 34.6574 18.3912 34.4594 17.9585 34.3421C17.2692 34.1514 16.6532 34.1734 16.1032 34.3934L23.3191 30.7854L23.5318 31.1594L25.5705 34.6794C26.2085 35.7721 26.9052 36.6668 27.6752 37.3634C28.1665 37.8181 28.6945 38.1848 29.2445 38.4781C30.3958 39.0868 31.3932 39.2114 32.2365 38.8668L32.2953 38.8374L32.5665 38.7054L32.6105 38.6761L39.7679 35.1048L42.6645 40.0841Z" fill="#0E283B" stroke="#229EFF" stroke-width="0.366667" stroke-linecap="round" stroke-linejoin="round"/>
<path d="M64.2103 35.2293C64.2323 35.9773 64.0124 36.5053 63.5577 36.8133L47.4537 48.3486C47.3071 48.4513 47.1603 48.5393 47.0063 48.6126L32.6111 55.7993C32.6697 55.7626 32.7284 55.726 32.7871 55.682L43.4863 48.0186L48.8911 44.1466C49.3457 43.8386 49.5657 43.3106 49.5437 42.5626C49.5217 41.8146 49.2797 41.0446 48.825 40.26C48.6197 39.9153 48.4071 39.6 48.1651 39.3286C47.8131 38.9253 47.4243 38.5953 46.9917 38.346C46.471 38.0453 46.0237 37.9353 45.6351 38.0453H45.6204C45.5544 38.0673 45.4957 38.0893 45.4371 38.1113L60.0083 30.8366L60.1037 30.7853C60.5291 30.58 61.0423 30.6606 61.6583 31.0126C62.3843 31.4306 62.993 32.0686 63.4917 32.9266C63.9463 33.7113 64.1883 34.4813 64.2103 35.2293Z" fill="#14364E" stroke="#229EFF" stroke-width="0.366667" stroke-linecap="round" stroke-linejoin="round"/>
<path d="M19.7707 41.7928L6.29929 48.5248L19.2794 41.1254L19.36 41.0814L19.4261 41.1988L19.7707 41.7928Z" fill="#002B4D" stroke="#229EFF" stroke-width="0.366667" stroke-linecap="round" stroke-linejoin="round"/>
<path d="M19.7707 24.6694L6.29929 31.4014Z" fill="#002B4D"/>
<path d="M19.7707 24.6694L6.29929 31.4014" stroke="#229EFF" stroke-width="0.366667" stroke-linecap="round" stroke-linejoin="round"/>
</svg>
