<svg width="58" height="58" viewBox="0 0 58 58" fill="none" xmlns="http://www.w3.org/2000/svg">
<path d="M30.4629 53.5932C31.4348 53.1281 32.3387 52.6735 33.1852 52.2345L30.4629 53.5932Z" fill="#229EFF" stroke="#229EFF" stroke-width="0.261261" stroke-linecap="round" stroke-linejoin="round"/>
<path d="M34.8467 12.6637L35.4946 12.3398C35.2699 12.4338 35.0505 12.5331 34.8467 12.6637Z" fill="#229EFF" stroke="#229EFF" stroke-width="0.261261" stroke-linecap="round" stroke-linejoin="round"/>
<path d="M51.3793 41.7107C50.0782 43.0849 48.2755 44.4278 45.9816 45.7341C44.5499 46.5492 42.8622 47.4271 40.9289 48.3624H40.9132L33.3627 52.1402C34.1413 51.7326 34.8623 51.3407 35.5311 50.9593C35.7976 50.8078 36.0589 50.6563 36.3149 50.4995C38.2378 49.3395 39.7793 48.1482 40.9289 46.9359L51.3793 41.7107Z" fill="#229EFF" stroke="#229EFF" stroke-width="0.261261" stroke-linecap="round" stroke-linejoin="round"/>
<path d="M34.1099 13.0347L25.3002 17.4656C24.7255 17.6694 24.1924 17.962 23.7013 18.3435C22.536 16.1019 21.1461 14.0797 19.5368 12.2822C17.9274 10.4847 16.2292 9.07394 14.4474 8.04457C14.1861 7.89304 13.9249 7.75196 13.6688 7.62133C11.0719 6.28889 8.84077 6.01718 6.97537 6.80619L16.8249 1.87879C18.9829 0.645633 21.6739 0.959173 24.8978 2.81935C26.6796 3.84872 28.3778 5.25952 29.9872 7.057C31.5757 8.83358 32.9499 10.8244 34.1099 13.0347Z" fill="#3074A4" stroke="#229EFF" stroke-width="0.261261" stroke-linecap="round" stroke-linejoin="round"/>
<path d="M54.7236 33.0213C54.7236 34.0454 54.6504 34.986 54.5145 35.8533C54.3787 36.7155 54.1226 37.5515 53.7464 38.3562L49.3625 40.5456L43.2959 43.5815C43.6722 42.7768 43.9282 41.9407 44.0641 41.0786C44.2 40.2112 44.2731 39.2706 44.2731 38.2465C44.2731 38.0323 44.2679 37.818 44.2627 37.6038C44.2052 35.8586 43.9021 34.1133 43.3639 32.3629C42.8257 30.6177 42.0523 28.862 41.0334 27.1115C39.9204 25.1939 38.6717 23.527 37.2765 22.111C37.24 22.064 37.2033 22.0169 37.1615 21.9699C36.9577 21.7452 36.7487 21.5467 36.5293 21.3847C35.4215 20.3553 34.2302 19.4723 32.9605 18.7355C31.1735 17.7061 29.4805 17.1575 27.8659 17.0948C26.9358 17.0582 26.084 17.1784 25.3003 17.4658L34.11 13.0348C34.11 13.0348 34.1361 13.0923 34.1518 13.1184C34.3504 12.9616 34.5594 12.8206 34.7736 12.7056L34.8467 12.6638L35.4947 12.3398C36.3412 11.9845 37.287 11.8278 38.3164 11.8696C39.9309 11.9323 41.6239 12.4809 43.4109 13.5103C46.6297 15.3705 49.3206 18.1607 51.4839 21.8863C53.6419 25.6119 54.7236 29.3218 54.7236 33.0213Z" fill="#3074A4" stroke="#229EFF" stroke-width="0.261261" stroke-linecap="round" stroke-linejoin="round"/>
<path d="M51.3791 41.7107L40.9287 46.936L29.8721 40.556C29.5272 40.3574 29.2032 40.07 28.8949 39.6938C28.5867 39.3228 28.3463 38.9257 28.1739 38.5129L26.3764 34.4059L29.2032 32.9898L29.4488 32.8697L31.053 36.5169L33.4566 37.9016L43.2957 43.5814L49.3622 40.5455L51.3791 41.7107Z" fill="#14364E" stroke="#229EFF" stroke-width="0.261261" stroke-linecap="round" stroke-linejoin="round"/>
<path d="M35.5257 12.324L35.4949 12.3394Z" fill="#229EFF"/>
<path d="M35.5257 12.324L35.4949 12.3394" stroke="#229EFF" stroke-width="0.261261" stroke-linecap="round" stroke-linejoin="round"/>
<path d="M34.774 12.7056L34.1104 13.0348Z" fill="#229EFF"/>
<path d="M34.774 12.7056L34.1104 13.0348" stroke="#229EFF" stroke-width="0.261261" stroke-linecap="round" stroke-linejoin="round"/>
<path d="M40.9289 46.936C39.7793 48.1482 38.2378 49.3396 36.315 50.4996C36.0589 50.6563 35.7976 50.8079 35.5312 50.9594C34.8623 51.3408 34.1413 51.7327 33.3628 52.1403L33.185 52.2343L30.4627 53.5931L30.2276 53.7081C29.1251 54.2358 27.9494 54.7845 26.6849 55.354L23.7013 56.7021L20.7177 51.9104C17.1175 46.1365 14.1705 41.2666 11.8766 37.3059C9.57752 33.3399 7.78 29.9226 6.47372 27.0488L16.3494 32.7495L19.8973 40.812C20.1011 41.2875 20.3676 41.7055 20.6916 42.0713C21.0208 42.4371 21.3708 42.7297 21.747 42.9439C22.1912 43.1999 22.5779 43.2783 22.9071 43.1686C23.231 43.0641 23.4609 42.8133 23.5968 42.4214L26.3766 34.4059L28.1741 38.5129C28.3465 38.9257 28.5869 39.3228 28.8952 39.6938C29.2035 40.07 29.5274 40.3574 29.8723 40.556L40.9289 46.936Z" fill="url(#paint0_linear_38_255)"/>
<path d="M44.2732 38.2466C44.2732 39.2708 44.2001 40.2113 44.0642 41.0787C43.9284 41.9409 43.6723 42.7769 43.2961 43.5816L31.0534 36.5171L29.4492 32.8699L28.6236 30.9992L27.5054 28.4493C27.3016 27.9791 27.0352 27.561 26.7112 27.1953C26.382 26.8295 26.032 26.5369 25.6558 26.3174C25.2116 26.0614 24.8249 25.9882 24.5009 26.0928C24.4643 26.1032 24.4278 26.1189 24.3912 26.1346C24.1195 26.26 23.9262 26.5003 23.806 26.8452L22.8863 29.4787L22.1078 31.6994L21.0262 34.798L19.4586 31.1926L19.2809 30.7798C19.1085 30.367 18.8681 29.9751 18.5598 29.5989C18.2516 29.2227 17.9276 28.9353 17.5827 28.7367L4.1121 20.9616C3.73065 19.718 3.47462 18.5893 3.33877 17.5652C3.20291 16.541 3.13498 15.5169 3.13498 14.498C3.13498 10.7985 4.21141 8.33221 6.37466 7.10428C6.57321 6.99455 6.77179 6.89527 6.97557 6.80645C8.84098 6.01744 11.0721 6.28915 13.669 7.62158C13.9251 7.75221 14.1863 7.89329 14.4476 8.04482C16.2294 9.07419 17.9276 10.485 19.537 12.2825C21.1463 14.08 22.5362 16.1021 23.7015 18.3437C24.1926 17.9623 24.7256 17.6697 25.3004 17.4659C26.0842 17.1785 26.9359 17.0583 27.866 17.0949C29.4806 17.1576 31.1736 17.7063 32.9606 18.7356C34.2303 19.4724 35.4216 20.3555 36.5294 21.3848C36.7854 21.6147 37.0311 21.8603 37.2767 22.1111C38.6718 23.5272 39.9206 25.194 41.0335 27.1117C42.0525 28.8621 42.8258 30.6178 43.364 32.363C43.9022 34.1135 44.2053 35.8587 44.2628 37.6039C44.268 37.8182 44.2732 38.0324 44.2732 38.2466Z" fill="url(#paint1_linear_38_255)"/>
<path d="M40.9289 46.936C39.7793 48.1482 38.2378 49.3396 36.315 50.4996C36.0589 50.6563 35.7976 50.8079 35.5312 50.9594C34.8623 51.3408 34.1413 51.7327 33.3628 52.1403L33.185 52.2343L30.4627 53.5931L30.2276 53.7081C29.1251 54.2358 27.9494 54.7845 26.6849 55.354L23.7013 56.7021L20.7177 51.9104C17.1175 46.1365 14.1705 41.2666 11.8766 37.3059C9.57752 33.3399 7.78 29.9226 6.47372 27.0488L16.3494 32.7495L19.8973 40.812C20.1011 41.2875 20.3676 41.7055 20.6916 42.0713C21.0208 42.4371 21.3708 42.7297 21.747 42.9439C22.1912 43.1999 22.5779 43.2783 22.9071 43.1686C23.231 43.0641 23.4609 42.8133 23.5968 42.4214L26.3766 34.4059L28.1741 38.5129C28.3465 38.9257 28.5869 39.3228 28.8952 39.6938C29.2035 40.07 29.5274 40.3574 29.8723 40.556L40.9289 46.936Z" stroke="#229EFF" stroke-width="0.261261" stroke-linecap="round" stroke-linejoin="round"/>
<path d="M44.2732 38.2466C44.2732 39.2708 44.2001 40.2113 44.0642 41.0787C43.9284 41.9409 43.6723 42.7769 43.2961 43.5816L31.0534 36.5171L29.4492 32.8699L28.6236 30.9992L27.5054 28.4493C27.3016 27.9791 27.0352 27.561 26.7112 27.1953C26.382 26.8295 26.032 26.5369 25.6558 26.3174C25.2116 26.0614 24.8249 25.9882 24.5009 26.0928C24.4643 26.1032 24.4278 26.1189 24.3912 26.1346C24.1195 26.26 23.9262 26.5003 23.806 26.8452L22.8863 29.4787L22.1078 31.6994L21.0262 34.798L19.4586 31.1926L19.2809 30.7798C19.1085 30.367 18.8681 29.9751 18.5598 29.5989C18.2516 29.2227 17.9276 28.9353 17.5827 28.7367L4.1121 20.9616C3.73065 19.718 3.47462 18.5893 3.33877 17.5652C3.20291 16.541 3.13498 15.5169 3.13498 14.498C3.13498 10.7985 4.21141 8.33221 6.37466 7.10428C6.57321 6.99455 6.77179 6.89527 6.97557 6.80645C8.84098 6.01744 11.0721 6.28915 13.669 7.62158C13.9251 7.75221 14.1863 7.89329 14.4476 8.04482C16.2294 9.07419 17.9276 10.485 19.537 12.2825C21.1463 14.08 22.5362 16.1021 23.7015 18.3437C24.1926 17.9623 24.7256 17.6697 25.3004 17.4659C26.0842 17.1785 26.9359 17.0583 27.866 17.0949C29.4806 17.1576 31.1736 17.7063 32.9606 18.7356C34.2303 19.4724 35.4216 20.3555 36.5294 21.3848C36.7854 21.6147 37.0311 21.8603 37.2767 22.1111C38.6718 23.5272 39.9206 25.194 41.0335 27.1117C42.0525 28.8621 42.8258 30.6178 43.364 32.363C43.9022 34.1135 44.2053 35.8587 44.2628 37.6039C44.268 37.8182 44.2732 38.0324 44.2732 38.2466Z" stroke="#229EFF" stroke-width="0.261261" stroke-linecap="round" stroke-linejoin="round"/>
<path d="M29.2037 32.99L26.3769 34.406L25.3893 37.259L23.597 42.4215C23.4612 42.8134 23.2313 43.0643 22.9073 43.1688C22.5782 43.2785 22.1914 43.2001 21.7473 42.9441C21.3711 42.7298 21.021 42.4372 20.6919 42.0715C20.3679 41.7057 20.1014 41.2877 19.8976 40.8122L16.3496 32.7497L19.4586 31.1925L21.0262 34.7979L23.2574 33.6797L28.3834 31.1194L29.2037 32.99Z" fill="#14364E" stroke="#229EFF" stroke-width="0.261261" stroke-linecap="round" stroke-linejoin="round"/>
<path d="M19.4584 31.1925L16.3495 32.7496L6.47375 27.0489L10.8577 24.8543L17.5826 28.7367C17.9275 28.9352 18.2514 29.2226 18.5597 29.5988C18.868 29.975 19.1084 30.3669 19.2808 30.7797L19.4584 31.1925Z" fill="#14364E" stroke="#229EFF" stroke-width="0.261261" stroke-linecap="round" stroke-linejoin="round"/>
<path d="M28.624 30.9988L28.3836 31.119L23.2577 33.6794L21.0264 34.7975L22.1081 31.699L22.8867 29.4835L23.8063 26.8447C23.9265 26.4999 24.1198 26.2596 24.3915 26.1342C24.4281 26.1185 24.4647 26.1027 24.5013 26.0923C24.8252 25.9878 25.2119 26.0609 25.656 26.317C26.0322 26.5364 26.3823 26.8291 26.7115 27.1948C27.0354 27.5606 27.302 27.9787 27.5058 28.4489L28.624 30.9988Z" fill="#1F5175" stroke="#229EFF" stroke-width="0.261261" stroke-linecap="round" stroke-linejoin="round"/>
<defs>
<linearGradient id="paint0_linear_38_255" x1="23.7041" y1="6.36627" x2="24.1666" y2="56.7918" gradientUnits="userSpaceOnUse">
<stop stop-color="#3074A4"/>
<stop offset="1" stop-color="#122C3E"/>
</linearGradient>
<linearGradient id="paint1_linear_38_255" x1="23.7041" y1="6.36627" x2="24.1666" y2="56.7918" gradientUnits="userSpaceOnUse">
<stop stop-color="#3074A4"/>
<stop offset="1" stop-color="#122C3E"/>
</linearGradient>
</defs>
</svg>
