<svg width="60" height="60" viewBox="0 0 60 60" fill="none" xmlns="http://www.w3.org/2000/svg">
<path d="M31.4779 37.1255V44.6131C31.4779 45.3173 31.2696 45.7884 30.8531 46.0264C30.4365 46.2644 29.9208 46.2049 29.306 45.8528L27.1836 44.628L20.6084 40.8297C19.9936 40.4726 19.4729 39.9371 19.0564 39.2181C18.6398 38.4991 18.4316 37.785 18.4316 37.0809V29.5934C18.4316 28.8892 18.6398 28.4132 19.0564 28.1752C19.1407 28.1256 19.2299 28.0908 19.3241 28.066C19.6911 27.9718 20.1175 28.071 20.6084 28.3537L22.7803 27.2677V29.6082L27.1291 32.1222L28.3489 31.5123L30 30.5999C30 31.304 31.3835 32.2809 31.8 32.9999C32.2166 33.7189 31.7852 34.4429 32.4 34.7999L31.3985 36.3768C31.4531 36.6297 31.4779 36.8776 31.4779 37.1255Z" fill="#80C4F4" stroke="#229EFF" stroke-width="0.247934" stroke-linecap="round" stroke-linejoin="round"/>
<path d="M41.5639 26.1076C41.0383 24.972 40.3589 23.9753 39.5259 23.1224L37.7308 21.3125L34.8449 18.4067L26.4796 9.97694C25.9688 9.47611 25.463 9.07446 24.9573 8.7819C24.4515 8.48933 23.9407 8.30095 23.435 8.21666L17.4795 7.33897L10.3887 6.29765C9.84815 6.22823 9.36715 6.29264 8.95558 6.5009L8.88122 6.53566C8.68783 6.63484 8.51428 6.76867 8.35064 6.93231C7.82502 7.45793 7.56219 8.2414 7.56219 9.28272V21.0695C7.56219 26.8959 9.01014 33.1687 11.911 39.8927C14.8118 46.6216 18.7044 52.329 23.5986 57.0249C23.8168 57.2381 24.03 57.4216 24.2482 57.5902C24.4664 57.7588 24.7044 57.9125 24.9573 58.0612C25.2102 58.21 25.4481 58.324 25.6613 58.4083C25.8795 58.4926 26.0978 58.5521 26.3159 58.5968C29.2763 59.172 31.8697 58.9588 34.0961 57.9472L34.7903 57.6001C35.9705 56.9604 37.0416 56.0778 38.0035 54.9571C38.2862 54.6298 38.5539 54.2877 38.7969 53.9356C41.1671 50.6728 42.3523 46.4133 42.3523 41.1571V29.3703C42.3523 28.329 42.0895 27.2431 41.5639 26.1076ZM31.4779 44.6133C31.4779 45.3174 31.2697 45.7886 30.8531 46.0266C30.4366 46.2646 29.9209 46.205 29.306 45.853L27.1837 44.6282L20.6085 40.8298C19.9936 40.4728 19.4729 39.9373 19.0564 39.2183C18.6399 38.4992 18.4316 37.7852 18.4316 37.0811V29.5935C18.4316 28.8894 18.6399 28.4133 19.0564 28.1753C19.1407 28.1257 19.23 28.091 19.3242 28.0662C19.6911 27.972 20.1175 28.0712 20.6085 28.3538V25.8596C20.6085 24.4861 21.0349 23.5588 21.8828 23.0729C22.7357 22.5869 23.7622 22.691 24.9573 23.3803C25.3986 23.6332 25.8102 23.9406 26.2019 24.2976C26.4845 24.5554 26.7523 24.8381 27.0102 25.1505C27.3721 25.5869 27.7093 26.0778 28.0267 26.6183C28.1407 26.8167 28.2498 27.01 28.349 27.2083C28.9886 28.4678 29.306 29.6927 29.306 30.8828V33.377C29.9209 33.734 30.4366 34.2695 30.8531 34.9886C31.1209 35.4547 31.3044 35.9207 31.3986 36.3769C31.4531 36.6298 31.4779 36.8778 31.4779 37.1257V44.6133Z" fill="url(#paint0_linear_38_306)" stroke="#229EFF" stroke-width="0.247934" stroke-linecap="round" stroke-linejoin="round"/>
<path d="M26.2017 24.2974L23.405 25.6958C22.9884 25.9338 22.7802 26.4098 22.7802 27.114V27.2676L20.6083 28.3536V25.8594C20.6083 24.4859 21.0347 23.5586 21.8827 23.0726C22.7355 22.5867 23.762 22.6908 24.957 23.3801C25.3984 23.633 25.8099 23.9404 26.2017 24.2974Z" fill="#80C4F4" stroke="#229EFF" stroke-width="0.247934" stroke-linecap="round" stroke-linejoin="round"/>
<path d="M27.1292 29.6232V32.1223L22.7804 29.6082V27.1141C22.7804 26.4099 22.9887 25.9339 23.4052 25.6959L23.5341 25.6314C23.9259 25.4728 24.4019 25.5521 24.9573 25.8744C25.0465 25.929 25.1358 25.9835 25.225 26.048C25.7209 26.3951 26.1473 26.8711 26.5044 27.486C26.9209 28.205 27.1292 28.919 27.1292 29.6232Z" fill="#80C4F4" stroke="#229EFF" stroke-width="0.247934" stroke-linecap="round" stroke-linejoin="round"/>
<path d="M29.3058 30.8828V31.0365L28.3488 31.5125L27.1289 32.1224V29.6233C27.1289 28.9191 26.9207 28.2051 26.5041 27.4861C26.1471 26.8712 25.7207 26.3952 25.2248 26.0481C25.1355 25.9836 25.0463 25.9291 24.957 25.8745C24.4016 25.5522 23.9256 25.4729 23.5339 25.6316L26.2016 24.2976C26.4843 24.5555 26.7521 24.8381 27.0099 25.1505C27.3719 25.5869 27.7091 26.0779 28.0264 26.6183C28.1405 26.8167 28.2496 27.01 28.3488 27.2084C28.9884 28.4679 29.3058 29.6927 29.3058 30.8828Z" fill="#80C4F4" stroke="#229EFF" stroke-width="0.247934" stroke-linecap="round" stroke-linejoin="round"/>
<path d="M52.2696 24.4117V36.1986C52.2696 42.0201 50.8167 46.6217 47.9209 49.9985C46.8101 51.2927 45.5556 52.2696 44.1523 52.9241L44.0729 52.9638L34.7903 57.6002C35.9704 56.9605 37.0415 56.0779 38.0035 54.9572C38.2861 54.6299 38.5539 54.2878 38.7969 53.9357C41.1671 50.6729 42.3523 46.4134 42.3523 41.1572V29.3704C42.3523 28.3291 42.0894 27.2432 41.5638 26.1077C41.0382 24.9721 40.3589 23.9754 39.5258 23.1225L37.7308 21.3126L34.8448 18.4068L26.4795 9.97708C25.9688 9.47626 25.463 9.07455 24.9572 8.78199C24.4514 8.48943 23.9407 8.30105 23.4349 8.21675L17.4795 7.33907L10.3886 6.29774C9.84814 6.22832 9.36714 6.29274 8.95557 6.501L18.7093 1.62666C19.1556 1.35394 19.6911 1.25974 20.306 1.33908L33.3523 3.25808C33.858 3.34238 34.3688 3.53076 34.8746 3.82332C35.3804 4.11589 35.8861 4.51755 36.3969 5.01841L49.4432 18.1639C50.2762 19.0168 50.9556 20.0134 51.4812 21.149C52.0068 22.2845 52.2696 23.3704 52.2696 24.4117Z" fill="#1F5175" stroke="#229EFF" stroke-width="0.247934" stroke-linecap="round" stroke-linejoin="round"/>
<defs>
<linearGradient id="paint0_linear_38_306" x1="24.9573" y1="6.27081" x2="25.2001" y2="97.8001" gradientUnits="userSpaceOnUse">
<stop stop-color="#3074A4"/>
<stop offset="1" stop-color="#122C3E"/>
</linearGradient>
</defs>
</svg>
