<svg width="75" height="94" viewBox="0 0 75 94" fill="none" xmlns="http://www.w3.org/2000/svg">
<g opacity="0.3" filter="url(#filter0_f_19_475)">
<path d="M37.1476 49.5988L63.5856 63.1855L37.0416 76.5639L10.6035 62.9772L37.1476 49.5988Z" fill="#0A7272"/>
<path d="M10.6035 62.9772L37.0416 76.5639L37.018 82.5562L10.58 68.9694L10.6035 62.9772Z" fill="#064848"/>
<path d="M37.0416 76.5639L63.5856 63.1855L63.5621 69.1778L37.018 82.5562L37.0416 76.5639Z" fill="#033030"/>
<path d="M37.2242 30.124L63.6622 43.7107L37.1181 57.0891L10.6801 43.5024L37.2242 30.124Z" fill="#129090"/>
<path d="M10.6801 43.5024L37.1181 57.0891L37.0946 63.0814L10.6565 49.4946L10.6801 43.5024Z" fill="#0A6464"/>
<path d="M37.1181 57.0891L63.6622 43.7107L63.6386 49.703L37.0946 63.0814L37.1181 57.0891Z" fill="#064040"/>
<path d="M37.3007 10.6492L63.7388 24.2359L37.1947 37.6143L10.7567 24.0276L37.3007 10.6492Z" fill="#20B8B4"/>
<path d="M10.7567 24.0276L37.1947 37.6143L37.1711 43.6066L10.7331 30.0198L10.7567 24.0276Z" fill="#148888"/>
<path d="M37.1947 37.6143L63.7388 24.2359L63.7152 30.2282L37.1711 43.6066L37.1947 37.6143Z" fill="#0A6060"/>
<path d="M37.2831 15.1434L59.3177 25.7166L37.2065 34.6182L15.166 25.543L37.2831 15.1434Z" fill="#64D8D4"/>
<path d="M63.5856 63.1855L37.1476 49.5988L10.6035 62.9772M63.5856 63.1855L37.0416 76.5639M63.5856 63.1855L63.5621 69.1778L37.018 82.5562M37.0416 76.5639L10.6035 62.9772M37.0416 76.5639L37.018 82.5562M10.6035 62.9772L10.58 68.9694L37.018 82.5562M63.6622 43.7107L37.2242 30.124L10.6801 43.5024M63.6622 43.7107L37.1181 57.0891M63.6622 43.7107L63.6386 49.703L37.0946 63.0814M37.1181 57.0891L10.6801 43.5024M37.1181 57.0891L37.0946 63.0814M10.6801 43.5024L10.6565 49.4946L37.0946 63.0814M63.7388 24.2359L37.3007 10.6492L10.7567 24.0276M63.7388 24.2359L37.1947 37.6143M63.7388 24.2359L63.7152 30.2282L37.1711 43.6066M37.1947 37.6143L10.7567 24.0276M37.1947 37.6143L37.1711 43.6066M10.7567 24.0276L10.7331 30.0198L37.1711 43.6066M37.2831 15.1434L59.3177 25.7166L37.2065 34.6182L15.166 25.543L37.2831 15.1434Z" stroke="#50C8C4" stroke-width="1.15714"/>
</g>
<path d="M36.6031 49.5042L63.0412 63.0909L36.4971 76.4693L10.0591 62.8826L36.6031 49.5042Z" fill="#23608B"/>
<path d="M10.0591 62.8826L36.4971 76.4693L36.4736 82.4616L10.0355 68.8748L10.0591 62.8826Z" fill="#163D58"/>
<path d="M36.4971 76.4693L63.0412 63.0909L63.0176 69.0832L49.7456 75.7724L36.4736 82.4616L36.4971 76.4693Z" fill="#0E283B"/>
<path d="M36.6797 30.0294L49.8987 36.8228L63.1178 43.6161L36.5737 56.9945L10.1357 43.4078L36.6797 30.0294Z" fill="#317BAF"/>
<path d="M10.1357 43.4078L36.5737 56.9945L36.5501 62.9868L10.1121 49.4L10.1357 43.4078Z" fill="#20557A"/>
<path d="M36.5737 56.9945L63.1178 43.6161L63.0942 49.6084L36.5501 62.9868L36.5737 56.9945Z" fill="#14364E"/>
<path d="M36.7563 10.5546L63.1943 24.1413L36.6503 37.5197L10.2122 23.933L36.7563 10.5546Z" fill="#459EDD"/>
<path d="M10.2122 23.933L36.6503 37.5197L36.6267 43.5119L10.1887 29.9252L10.2122 23.933Z" fill="#3074A4"/>
<path d="M36.6503 37.5197L63.1943 24.1413L63.1708 30.1336L36.6267 43.5119L36.6503 37.5197Z" fill="#1F5175"/>
<path d="M36.7437 13.7542L58.0705 24.1212L36.662 34.5236L16.3534 23.9571L36.7437 13.7542Z" fill="#80C4F4"/>
<path d="M9.73941 24.0051L36.2471 10.645L62.6488 24.2131" stroke="url(#paint0_radial_19_475)"/>
<defs>
<filter id="filter0_f_19_475" x="-1.49012e-07" y="4.17233e-07" width="74.3187" height="93.2054" filterUnits="userSpaceOnUse" color-interpolation-filters="sRGB">
<feFlood flood-opacity="0" result="BackgroundImageFix"/>
<feBlend mode="normal" in="SourceGraphic" in2="BackgroundImageFix" result="shape"/>
<feGaussianBlur stdDeviation="5" result="effect1_foregroundBlur_19_475"/>
</filter>
<radialGradient id="paint0_radial_19_475" cx="0" cy="0" r="1" gradientTransform="matrix(46.2713 6.39622 -4.5018 33.7088 36.2206 17.3771)" gradientUnits="userSpaceOnUse">
<stop stop-color="#80E8E4"/>
<stop offset="1" stop-color="#488280" stop-opacity="0.1"/>
</radialGradient>
</defs>
</svg>
