<svg width="117" height="92" viewBox="0 0 117 92" fill="none" xmlns="http://www.w3.org/2000/svg">
<g clip-path="url(#clip0_20_2)">
<g opacity="0.3" filter="url(#filter0_f_20_2)">
<g clip-path="url(#clip1_20_2)">
<path d="M55.7183 14.2535L84.2254 40.169L55.7182 58.9577L55.7183 14.2535Z" fill="#B898FF"/>
<path d="M55.7183 14.2535L27.2113 40.169L55.7182 58.9577L55.7183 14.2535Z" fill="#8060E8"/>
<path d="M27.2113 40.169L55.7182 58.9577L55.7183 79.0422L27.2113 40.169Z" fill="#3E22A8"/>
<path d="M55.7182 58.9577L84.2254 40.169L55.7183 79.0422L55.7182 58.9577Z" fill="#1A0860"/>
<path d="M55.7183 20.0845L75.8028 40.169L55.7183 54.4225V20.0845Z" fill="#D8C4FF"/>
<path d="M55.7183 20.0845L34.9859 40.169L55.7183 54.4225V20.0845Z" fill="#A880F8"/>
<path d="M55.7183 25.2676L71.9155 40.169L55.7183 50.5352L40.169 40.169L55.7183 25.2676Z" fill="#E8D8FF" fill-opacity="0.5"/>
<path d="M55.7183 16.8451C57.1496 16.8451 58.3099 15.6848 58.3099 14.2535C58.3099 12.8222 57.1496 11.662 55.7183 11.662C54.2871 11.662 53.1268 12.8222 53.1268 14.2535C53.1268 15.6848 54.2871 16.8451 55.7183 16.8451Z" fill="#E8D8FF"/>
<path d="M27.2113 43.0197C28.7857 43.0197 30.062 41.7434 30.062 40.169C30.062 38.5946 28.7857 37.3183 27.2113 37.3183C25.6369 37.3183 24.3606 38.5946 24.3606 40.169C24.3606 41.7434 25.6369 43.0197 27.2113 43.0197Z" fill="#9070E0"/>
<path d="M84.2254 43.0197C85.7998 43.0197 87.0761 41.7434 87.0761 40.169C87.0761 38.5946 85.7998 37.3183 84.2254 37.3183C82.651 37.3183 81.3747 38.5946 81.3747 40.169C81.3747 41.7434 82.651 43.0197 84.2254 43.0197Z" fill="#9070E0"/>
<path d="M55.7183 81.6338C57.1496 81.6338 58.3099 80.4735 58.3099 79.0422C58.3099 77.611 57.1496 76.4507 55.7183 76.4507C54.2871 76.4507 53.1268 77.611 53.1268 79.0422C53.1268 80.4735 54.2871 81.6338 55.7183 81.6338Z" fill="#2A1070"/>
<path d="M98.1539 13.7951C98.6441 14.0787 99.1175 14.3769 99.5734 14.69L99.3083 14.9441C99.7563 15.2519 100.187 15.574 100.6 15.9108L100.895 15.679C101.316 16.0232 101.719 16.3825 102.102 16.7567L101.779 16.9641C101.966 17.1464 102.148 17.3322 102.326 17.5217C102.503 17.7113 102.674 17.9035 102.84 18.0979L103.188 17.9169C103.528 18.3162 103.844 18.7254 104.137 19.144L103.767 19.2967C104.054 19.7063 104.316 20.1257 104.556 20.5535L104.944 20.4299C105.188 20.8652 105.409 21.3091 105.607 21.7613L105.206 21.8558C105.397 22.2933 105.568 22.7389 105.716 23.1921L106.129 23.1263C106.278 23.5816 106.405 24.0439 106.512 24.5131L106.091 24.5526C106.194 25.0042 106.276 25.4628 106.339 25.9272L106.761 25.9132C106.824 26.3755 106.868 26.8433 106.893 27.3166L106.469 27.3077C106.493 27.7625 106.498 28.2225 106.486 28.6873L106.913 28.7176C106.901 29.1782 106.875 29.6434 106.829 30.1124L106.401 30.0629C106.358 30.5143 106.298 30.9699 106.223 31.4289L106.645 31.4959C106.571 31.9497 106.48 32.4063 106.376 32.8662L105.958 32.7833C105.858 33.2275 105.742 33.6747 105.614 34.1245L106.029 34.2218C105.902 34.6659 105.763 35.1127 105.61 35.5612L105.197 35.4502C105.049 35.8828 104.888 36.3179 104.715 36.7544L105.121 36.8768C104.95 37.3081 104.769 37.7414 104.574 38.1757L104.171 38.0415C103.982 38.4639 103.781 38.8877 103.569 39.3126L103.967 39.4576C103.757 39.8781 103.537 40.2996 103.307 40.7219L102.914 40.5672C102.69 40.9778 102.455 41.3896 102.211 41.8017L102.597 41.966C102.356 42.3725 102.103 42.7788 101.842 43.1861L101.462 43.0136C101.207 43.4119 100.942 43.8108 100.669 44.2096L101.046 44.3896C100.774 44.7853 100.494 45.1811 100.205 45.5767L99.8334 45.3894C99.5517 45.775 99.2611 46.1604 98.9626 46.5457L99.3289 46.7395C99.0329 47.1215 98.7308 47.5043 98.4187 47.8856L98.0566 47.6838C97.75 48.0584 97.4351 48.4328 97.1128 48.8065L97.4678 49.0133C97.1487 49.3833 96.8224 49.7528 96.4882 50.1215L96.1379 49.9085C95.8106 50.2697 95.4762 50.6302 95.1345 50.9898L95.4807 51.2095C95.1403 51.5678 94.7907 51.9239 94.4363 52.2804L94.0977 52.0563C93.75 52.406 93.3956 52.7552 93.0345 53.1029L93.3685 53.3318C93.0099 53.6771 92.6463 54.0223 92.2747 54.3653L91.9448 54.1296C91.5782 54.4681 91.2049 54.8054 90.8257 55.1415L91.1503 55.3813C90.7746 55.7142 90.3915 56.0448 90.0037 56.375L89.6857 56.1324C89.3031 56.4582 88.914 56.7825 88.5197 57.1054L88.8332 57.3528C88.4398 57.675 88.042 57.9967 87.637 58.3158L87.3275 58.0629C86.9302 58.3759 86.5276 58.6878 86.1193 58.9977L86.4229 59.254C86.0149 59.5637 85.6005 59.8709 85.1816 60.1771L84.8839 59.9174C84.4712 60.2191 84.053 60.5189 83.6299 60.8171L83.9224 61.081C83.5008 61.3781 83.0743 61.6737 82.6425 61.9671L82.356 61.6998C81.9285 61.9903 81.4958 62.2788 81.0583 62.5654L81.3403 62.8376C80.9063 63.1219 80.4673 63.4041 80.0238 63.6844L79.7469 63.4094C79.3067 63.6875 78.8617 63.9641 78.4121 64.2382L78.6833 64.5155C78.2362 64.788 77.7843 65.0582 77.328 65.3265L77.0628 65.0458C76.8356 65.1794 76.6067 65.3124 76.3772 65.4449C76.1478 65.5774 75.9178 65.7093 75.6876 65.8397L75.9486 66.1229C75.4865 66.3848 75.0233 66.643 74.5587 66.8968L74.3036 66.6102C73.8364 66.8655 73.3676 67.1165 72.8982 67.3635L73.1488 67.6537C72.6758 67.9025 72.2019 68.1474 71.7269 68.3879L71.4821 68.0942C71.0031 68.3367 70.5229 68.5753 70.0422 68.8092L70.2805 69.1043C69.7951 69.3404 69.3088 69.5719 68.8219 69.7993L68.5903 69.5002C68.1015 69.7285 67.6119 69.9529 67.1219 70.1723L67.3478 70.4735C66.8507 70.6961 66.3537 70.915 65.8556 71.1285L65.6357 70.8238C65.1373 71.0375 64.6383 71.2462 64.1393 71.4506L64.3533 71.7587C63.8448 71.967 63.3351 72.1692 62.8262 72.3679L62.6201 72.0586C62.11 72.2578 61.5999 72.4526 61.0899 72.6422L61.2887 72.9536C60.7718 73.1457 60.2558 73.3343 59.7391 73.5165L59.5456 73.201C59.0241 73.385 58.5027 73.5642 57.9821 73.738L58.1691 74.0562C57.6417 74.2322 57.114 74.4015 56.5878 74.5672L56.4102 74.2479C55.88 74.4148 55.3499 74.5763 54.8213 74.7326L54.9907 75.0543C54.4521 75.2135 53.9153 75.3689 53.3787 75.5171L53.2152 75.192C52.6762 75.3408 52.1384 75.4839 51.6019 75.6214L51.7552 75.9481C51.2075 76.0886 50.6611 76.2229 50.1164 76.3517L49.9719 76.0233C49.4217 76.1534 48.8728 76.2776 48.3261 76.3957L48.4623 76.7278C47.9059 76.8481 47.3506 76.9602 46.7982 77.0681L46.6729 76.7351C46.1157 76.8439 45.5607 76.9467 45.0082 77.0428L45.1239 77.378C44.5567 77.4766 43.9918 77.5677 43.43 77.653L43.3253 77.317C42.7591 77.403 42.1955 77.4823 41.6354 77.5546L41.7306 77.8917C41.1579 77.9656 40.5889 78.0337 40.0229 78.0934L39.9404 77.7533C39.3667 77.8139 38.7957 77.8672 38.2297 77.9129L38.2997 78.2536C37.7177 78.3007 37.1399 78.3397 36.5665 78.3712L36.5099 78.0294C35.9305 78.0612 35.3555 78.0852 34.7859 78.1011L34.8293 78.444C34.243 78.4602 33.6619 78.4667 33.0863 78.4661L33.0598 78.1245C32.4778 78.1239 31.9011 78.1147 31.3313 78.0966L31.3437 78.4398C30.7524 78.4211 30.1677 78.3916 29.5897 78.3542L29.5963 78.0132C29.0115 77.9754 28.4337 77.9283 27.8639 77.8711L27.8391 78.2094C27.249 78.1502 26.667 78.0814 26.0933 78.0016L26.1394 77.6652C25.5593 77.5845 24.9881 77.493 24.4266 77.391L24.3583 77.7259C23.7749 77.62 23.2019 77.501 22.6388 77.3722L22.7301 77.0437C22.1621 76.9138 21.6051 76.7721 21.0598 76.6187L20.9425 76.9402C20.3748 76.7805 19.8197 76.6075 19.2767 76.4225L19.4206 76.1099C18.8751 75.924 18.3425 75.7252 17.8245 75.5135L17.6502 75.8173C17.1122 75.5974 16.589 75.3632 16.0806 75.1156L16.2845 74.8254C15.7781 74.5788 15.2869 74.3187 14.8125 74.0443L14.5771 74.3175C14.0869 74.0339 13.6134 73.7357 13.1576 73.4226L13.4242 73.1687C12.9761 72.861 12.5459 72.5383 12.1337 72.2015L11.8371 72.4331C11.4158 72.0888 11.0123 71.7301 10.6287 71.3559L10.9533 71.1487C10.7665 70.9665 10.5842 70.7806 10.4068 70.5911C10.2295 70.4015 10.0581 70.2094 9.89249 70.0149L9.54321 70.1957C9.20308 69.7964 8.8877 69.3868 8.59528 68.9681L8.96586 68.8156C8.67978 68.406 8.41615 67.9871 8.17605 67.5593L7.78737 67.6827C7.57556 67.3054 7.38097 66.9215 7.20386 66.5314L7.12393 66.3513L7.52683 66.257C7.33505 65.8195 7.1657 65.3735 7.01727 64.9202L6.60317 64.9858C6.45418 64.5307 6.32575 64.0685 6.21926 63.5995L6.64105 63.5603C6.53852 63.1086 6.45604 62.6501 6.39304 62.1856L5.96961 62.1994C5.90692 61.7371 5.86254 61.2692 5.83799 60.796L6.26425 60.8047C6.24067 60.35 6.2348 59.8902 6.24654 59.4255L5.81961 59.3952C5.83125 58.9346 5.85774 58.4694 5.90318 58.0004L6.33112 58.0499C6.37487 57.5985 6.43421 57.1429 6.50938 56.6839L6.0863 56.6174C6.16063 56.1635 6.25071 55.7065 6.35498 55.2464L6.77405 55.3296C6.87473 54.8853 6.99006 54.4381 7.11873 53.9883L6.7018 53.8908C6.82894 53.4463 6.96759 52.999 7.12137 52.5502L7.53531 52.6627C7.68353 52.23 7.8445 51.7949 8.01752 51.3584L7.60973 51.2358C7.78085 50.8041 7.96226 50.3704 8.15705 49.9357L8.56136 50.0713C8.75066 49.649 8.95144 49.2251 9.16313 48.8002L8.76412 48.655C8.9736 48.2345 9.19351 47.8129 9.4244 47.3907L9.81812 47.5456C10.0427 47.1349 10.2779 46.7228 10.5228 46.3107L10.1335 46.1466C10.375 45.7401 10.6277 45.3338 10.8885 44.9265L11.2703 45.0993C11.5253 44.7009 11.79 44.3021 12.0635 43.9033L11.6858 43.7237C11.9572 43.3279 12.2365 42.9316 12.5257 42.5359L12.8991 42.7234C13.1808 42.3378 13.4713 41.9524 13.7699 41.5671L13.4021 41.3731C13.698 40.9911 14.0001 40.6083 14.3123 40.227L14.6758 40.429C14.9825 40.0544 15.2974 39.68 15.6197 39.3064L15.2631 39.0993C15.5822 38.7293 15.9086 38.3598 16.2427 37.9911L16.5945 38.2043C16.9218 37.8432 17.2563 37.4826 17.5979 37.123L17.2511 36.9026C17.5913 36.5445 17.9405 36.1885 18.2946 35.8322L18.6356 36.056C18.9833 35.7064 19.3378 35.3571 19.6988 35.0094L19.3625 34.7808C19.721 34.4355 20.0847 34.0903 20.4562 33.7473L20.7876 33.9832C21.1543 33.6448 21.5276 33.3074 21.9068 32.9714L21.5806 32.7313C21.9563 32.3984 22.3394 32.0678 22.7272 31.7376L23.0475 31.9811C23.4301 31.6553 23.8184 31.3303 24.2127 31.0074L23.8977 30.7598C24.2912 30.4376 24.689 30.1159 25.0939 29.7968L25.405 30.0499C25.8023 29.7369 26.2049 29.425 26.6132 29.1152L26.308 28.8586C26.7161 28.5489 27.1305 28.2417 27.5493 27.9355L27.8485 28.1954C28.2614 27.8936 28.6801 27.5935 29.1034 27.2952L28.8086 27.0316C29.2302 26.7345 29.6566 26.4389 30.0884 26.1455L30.3771 26.4137C30.8048 26.1232 31.2374 25.8336 31.675 25.5469L31.3907 25.275C31.8246 24.9907 32.2636 24.7085 32.7072 24.4282L32.9856 24.7035C33.4258 24.4253 33.8714 24.1494 34.321 23.8754L34.0476 23.5971C34.4948 23.3246 34.9467 23.0544 35.4029 22.7861L35.6697 23.0671C35.8969 22.9335 36.1258 22.8004 36.3552 22.6679C36.5847 22.5354 36.8147 22.4036 37.0448 22.2731L36.7823 21.9897C37.2444 21.7278 37.7076 21.4696 38.1723 21.2158L38.4295 21.5033C38.8967 21.2481 39.3649 20.9963 39.8343 20.7494L39.5821 20.4589C40.0551 20.2101 40.529 19.9652 41.004 19.7247L41.2512 20.0181C41.73 19.7757 42.2103 19.5382 42.6909 19.3044L42.4504 19.0083C42.9358 18.7722 43.4222 18.5407 43.9091 18.3133L44.143 18.6121C44.6316 18.3839 45.1207 18.1599 45.6105 17.9406L45.3832 17.6391C45.8803 17.4165 46.3772 17.1976 46.8753 16.9841L47.0967 17.289C47.5951 17.0754 48.0942 16.8666 48.5932 16.6623L48.3776 16.3539C48.8862 16.1456 49.3959 15.9434 49.9047 15.7447L50.1123 16.0543C50.6224 15.855 51.1332 15.6609 51.6432 15.4713L51.4422 15.159C51.9592 14.9669 52.4752 14.7783 52.9918 14.5961L53.1869 14.9118C53.7084 14.7278 54.2297 14.5487 54.7504 14.3748L54.5619 14.0564C55.0895 13.8803 55.6175 13.7107 56.144 13.545L56.3231 13.8644C56.8533 13.6975 57.3834 13.536 57.9121 13.3798L57.7402 13.0583C58.2792 12.899 58.8161 12.7433 59.3531 12.595L59.5173 12.9209C60.0562 12.7721 60.5941 12.629 61.1305 12.4914L60.9758 12.1645C61.5234 12.024 62.0698 11.8897 62.6146 11.7609L62.7606 12.0896C63.3107 11.9595 63.8597 11.8352 64.4063 11.7171L64.2686 11.3848C64.825 11.2645 65.3803 11.1524 65.9328 11.0445L66.0595 11.3777C66.6167 11.2689 67.1718 11.1661 67.7242 11.0701L67.6071 10.7346C68.1741 10.636 68.7386 10.5441 69.3003 10.4588L69.4072 10.7958C69.9734 10.7099 70.537 10.6305 71.0971 10.5583L71.0003 10.2209C71.573 10.147 72.1421 10.0789 72.7081 10.0192L72.7929 10.359C73.3666 10.2985 73.9368 10.2457 74.5028 10.1999L74.4313 9.85897C75.0132 9.81192 75.591 9.77293 76.1644 9.7414L76.2226 10.0834C76.802 10.0516 77.3769 10.0276 77.9466 10.0118L77.9032 9.66887C78.4889 9.65261 79.0695 9.64588 79.6446 9.64647L79.6727 9.98832C80.2546 9.98891 80.8313 9.99814 81.4012 10.0162L81.3888 9.67298C81.9795 9.69168 82.5638 9.72109 83.1412 9.75843L83.1361 10.0996C83.7211 10.1375 84.2987 10.1845 84.8686 10.2417L84.8918 9.90316C85.4817 9.96231 86.0635 10.0306 86.637 10.1103L86.593 10.4476C87.1731 10.5283 87.7444 10.6198 88.3058 10.7218L88.3735 10.3862L88.3728 10.3855C88.9562 10.4914 89.5292 10.6105 90.0923 10.7392L90.0024 11.0691C90.5706 11.1991 91.128 11.3401 91.6735 11.4936L91.7885 11.1724C92.3561 11.3321 92.9113 11.5051 93.4542 11.6901L93.3119 12.003C93.8574 12.1889 94.3899 12.3876 94.908 12.5993L95.0807 12.2953C95.6189 12.5152 96.1426 12.7489 96.6512 12.9965L96.4488 13.2869C96.9551 13.5335 97.4456 13.7942 97.9199 14.0686L98.1539 13.7951Z" stroke="#3E22A8" stroke-opacity="0.45" stroke-width="0.777465" stroke-dasharray="1.55 1.55"/>
</g>
</g>
<path d="M55.7183 14.2535L84.2254 40.169L55.7182 58.9577L55.7183 14.2535Z" fill="#7A97C3"/>
<path d="M55.7183 14.2535L27.2113 40.169L55.7182 58.9577L55.7183 14.2535Z" fill="#346197"/>
<path d="M27.2113 40.169L55.7182 58.9577L55.7183 79.0422L27.2113 40.169Z" fill="#082D50"/>
<path d="M55.7182 58.9577L84.2254 40.169L55.7183 79.0422L55.7182 58.9577Z" fill="#0E2637"/>
<path d="M55.7183 20.0845L75.8028 40.169L55.7183 54.4225V20.0845Z" fill="#B5D4DD"/>
<path d="M55.7183 20.0845L34.9859 40.169L55.7183 54.4225V20.0845Z" fill="#5F8AB2"/>
<path d="M55.7183 25.2676L71.9155 40.169L55.7183 50.5352L40.169 40.169L55.7183 25.2676Z" fill="#D8FFFA" fill-opacity="0.5"/>
<path d="M55.7183 16.8451C57.1496 16.8451 58.3099 15.6848 58.3099 14.2535C58.3099 12.8222 57.1496 11.662 55.7183 11.662C54.2871 11.662 53.1268 12.8222 53.1268 14.2535C53.1268 15.6848 54.2871 16.8451 55.7183 16.8451Z" fill="#CFE6E9"/>
<path d="M27.2113 43.0197C28.7857 43.0197 30.062 41.7434 30.062 40.169C30.062 38.5946 28.7857 37.3183 27.2113 37.3183C25.6369 37.3183 24.3606 38.5946 24.3606 40.169C24.3606 41.7434 25.6369 43.0197 27.2113 43.0197Z" fill="#317BAF"/>
<path d="M84.2254 43.0197C85.7998 43.0197 87.0761 41.7434 87.0761 40.169C87.0761 38.5946 85.7998 37.3183 84.2254 37.3183C82.651 37.3183 81.3747 38.5946 81.3747 40.169C81.3747 41.7434 82.651 43.0197 84.2254 43.0197Z" fill="#317BAF"/>
<path d="M55.7183 81.6338C57.1496 81.6338 58.3099 80.4735 58.3099 79.0422C58.3099 77.611 57.1496 76.4507 55.7183 76.4507C54.2871 76.4507 53.1268 77.611 53.1268 79.0422C53.1268 80.4735 54.2871 81.6338 55.7183 81.6338Z" fill="#052231"/>
<path d="M98.1539 13.7951C98.6441 14.0787 99.1175 14.3769 99.5734 14.69L99.3083 14.9441C99.7563 15.2519 100.187 15.574 100.6 15.9108L100.895 15.679C101.316 16.0232 101.719 16.3825 102.102 16.7567L101.779 16.9641C101.966 17.1464 102.148 17.3322 102.326 17.5217C102.503 17.7113 102.674 17.9035 102.84 18.0979L103.188 17.9169C103.528 18.3162 103.844 18.7254 104.137 19.144L103.767 19.2967C104.054 19.7063 104.316 20.1257 104.556 20.5535L104.944 20.4299C105.188 20.8652 105.409 21.3091 105.607 21.7613L105.206 21.8558C105.397 22.2933 105.568 22.7389 105.716 23.1921L106.129 23.1263C106.278 23.5816 106.405 24.0439 106.512 24.5131L106.091 24.5526C106.194 25.0042 106.276 25.4628 106.339 25.9272L106.761 25.9132C106.824 26.3755 106.868 26.8433 106.893 27.3166L106.469 27.3077C106.493 27.7625 106.498 28.2225 106.486 28.6873L106.913 28.7176C106.901 29.1782 106.875 29.6434 106.829 30.1124L106.401 30.0629C106.358 30.5143 106.298 30.9699 106.223 31.4289L106.645 31.4959C106.571 31.9497 106.48 32.4063 106.376 32.8662L105.958 32.7833C105.858 33.2275 105.742 33.6747 105.614 34.1245L106.029 34.2218C105.902 34.6659 105.763 35.1127 105.61 35.5612L105.197 35.4502C105.049 35.8828 104.888 36.3179 104.715 36.7544L105.121 36.8768C104.95 37.3081 104.769 37.7414 104.574 38.1757L104.171 38.0415C103.982 38.4639 103.781 38.8877 103.569 39.3126L103.967 39.4576C103.757 39.8781 103.537 40.2996 103.307 40.7219L102.914 40.5672C102.69 40.9778 102.455 41.3896 102.211 41.8017L102.597 41.966C102.356 42.3725 102.103 42.7788 101.842 43.1861L101.462 43.0136C101.207 43.4119 100.942 43.8108 100.669 44.2096L101.046 44.3896C100.774 44.7853 100.494 45.1811 100.205 45.5767L99.8334 45.3894C99.5517 45.775 99.2611 46.1604 98.9626 46.5457L99.3289 46.7395C99.0329 47.1215 98.7308 47.5043 98.4187 47.8856L98.0566 47.6838C97.75 48.0584 97.4351 48.4328 97.1128 48.8065L97.4678 49.0133C97.1487 49.3833 96.8224 49.7528 96.4882 50.1215L96.1379 49.9085C95.8106 50.2697 95.4762 50.6302 95.1345 50.9898L95.4807 51.2095C95.1403 51.5678 94.7907 51.9239 94.4363 52.2804L94.0977 52.0563C93.75 52.406 93.3956 52.7552 93.0345 53.1029L93.3685 53.3318C93.0099 53.6771 92.6463 54.0223 92.2747 54.3653L91.9448 54.1296C91.5782 54.4681 91.2049 54.8054 90.8257 55.1415L91.1503 55.3813C90.7746 55.7142 90.3915 56.0448 90.0037 56.375L89.6857 56.1324C89.3031 56.4582 88.914 56.7825 88.5197 57.1054L88.8332 57.3528C88.4398 57.675 88.042 57.9967 87.637 58.3158L87.3275 58.0629C86.9302 58.3759 86.5276 58.6878 86.1193 58.9977L86.4229 59.254C86.0149 59.5637 85.6005 59.8709 85.1816 60.1771L84.8839 59.9174C84.4712 60.2191 84.053 60.5189 83.6299 60.8171L83.9224 61.081C83.5008 61.3781 83.0743 61.6737 82.6425 61.9671L82.356 61.6998C81.9285 61.9903 81.4958 62.2788 81.0583 62.5654L81.3403 62.8376C80.9063 63.1219 80.4673 63.4041 80.0238 63.6844L79.7469 63.4094C79.3067 63.6875 78.8617 63.9641 78.4121 64.2382L78.6833 64.5155C78.2362 64.788 77.7843 65.0582 77.328 65.3265L77.0628 65.0458C76.8356 65.1794 76.6067 65.3124 76.3772 65.4449C76.1478 65.5774 75.9178 65.7093 75.6876 65.8397L75.9486 66.1229C75.4865 66.3848 75.0233 66.643 74.5587 66.8968L74.3036 66.6102C73.8364 66.8655 73.3676 67.1165 72.8982 67.3635L73.1488 67.6537C72.6758 67.9025 72.2019 68.1474 71.7269 68.3879L71.4821 68.0942C71.0031 68.3367 70.5229 68.5753 70.0422 68.8092L70.2805 69.1043C69.7951 69.3404 69.3088 69.5719 68.8219 69.7993L68.5903 69.5002C68.1015 69.7285 67.6119 69.9529 67.1219 70.1723L67.3478 70.4735C66.8507 70.6961 66.3537 70.915 65.8556 71.1285L65.6357 70.8238C65.1373 71.0375 64.6383 71.2462 64.1393 71.4506L64.3533 71.7587C63.8448 71.967 63.3351 72.1692 62.8262 72.3679L62.6201 72.0586C62.11 72.2578 61.5999 72.4526 61.0899 72.6422L61.2887 72.9536C60.7718 73.1457 60.2558 73.3343 59.7391 73.5165L59.5456 73.201C59.0241 73.385 58.5027 73.5642 57.9821 73.738L58.1691 74.0562C57.6417 74.2322 57.114 74.4015 56.5878 74.5672L56.4102 74.2479C55.88 74.4148 55.3499 74.5763 54.8213 74.7326L54.9907 75.0543C54.4521 75.2135 53.9153 75.3689 53.3787 75.5171L53.2152 75.192C52.6762 75.3408 52.1384 75.4839 51.6019 75.6214L51.7552 75.9481C51.2075 76.0886 50.6611 76.2229 50.1164 76.3517L49.9719 76.0233C49.4217 76.1534 48.8728 76.2776 48.3261 76.3957L48.4623 76.7278C47.9059 76.8481 47.3506 76.9602 46.7982 77.0681L46.6729 76.7351C46.1157 76.8439 45.5607 76.9467 45.0082 77.0428L45.1239 77.378C44.5567 77.4766 43.9918 77.5677 43.43 77.653L43.3253 77.317C42.7591 77.403 42.1955 77.4823 41.6354 77.5546L41.7306 77.8917C41.1579 77.9656 40.5889 78.0337 40.0229 78.0934L39.9404 77.7533C39.3667 77.8139 38.7957 77.8672 38.2297 77.9129L38.2997 78.2536C37.7177 78.3007 37.1399 78.3397 36.5665 78.3712L36.5099 78.0294C35.9305 78.0612 35.3555 78.0852 34.7859 78.1011L34.8293 78.444C34.243 78.4602 33.6619 78.4667 33.0863 78.4661L33.0598 78.1245C32.4778 78.1239 31.9011 78.1147 31.3313 78.0966L31.3437 78.4398C30.7524 78.4211 30.1677 78.3916 29.5897 78.3542L29.5963 78.0132C29.0115 77.9754 28.4337 77.9283 27.8639 77.8711L27.8391 78.2094C27.249 78.1502 26.667 78.0814 26.0933 78.0016L26.1394 77.6652C25.5593 77.5845 24.9881 77.493 24.4266 77.391L24.3583 77.7259C23.7749 77.62 23.2019 77.501 22.6388 77.3722L22.7301 77.0437C22.1621 76.9138 21.6051 76.7721 21.0598 76.6187L20.9425 76.9402C20.3748 76.7805 19.8197 76.6075 19.2767 76.4225L19.4206 76.1099C18.8751 75.924 18.3425 75.7252 17.8245 75.5135L17.6502 75.8173C17.1122 75.5974 16.589 75.3632 16.0806 75.1156L16.2845 74.8254C15.7781 74.5788 15.2869 74.3187 14.8125 74.0443L14.5771 74.3175C14.0869 74.0339 13.6134 73.7357 13.1576 73.4226L13.4242 73.1687C12.9761 72.861 12.5459 72.5383 12.1337 72.2015L11.8371 72.4331C11.4158 72.0888 11.0123 71.7301 10.6287 71.3559L10.9533 71.1487C10.7665 70.9665 10.5842 70.7806 10.4068 70.5911C10.2295 70.4015 10.0581 70.2094 9.89249 70.0149L9.54321 70.1957C9.20308 69.7964 8.8877 69.3868 8.59528 68.9681L8.96586 68.8156C8.67978 68.406 8.41615 67.9871 8.17605 67.5593L7.78737 67.6827C7.57556 67.3054 7.38097 66.9215 7.20386 66.5314L7.12393 66.3513L7.52683 66.257C7.33505 65.8195 7.1657 65.3735 7.01727 64.9202L6.60317 64.9858C6.45418 64.5307 6.32575 64.0685 6.21926 63.5995L6.64105 63.5603C6.53852 63.1086 6.45604 62.6501 6.39304 62.1856L5.96961 62.1994C5.90692 61.7371 5.86254 61.2692 5.83799 60.796L6.26425 60.8047C6.24067 60.35 6.2348 59.8902 6.24654 59.4255L5.81961 59.3952C5.83125 58.9346 5.85774 58.4694 5.90318 58.0004L6.33112 58.0499C6.37487 57.5985 6.43421 57.1429 6.50938 56.6839L6.0863 56.6174C6.16063 56.1635 6.25071 55.7065 6.35498 55.2464L6.77405 55.3296C6.87473 54.8853 6.99006 54.4381 7.11873 53.9883L6.7018 53.8908C6.82894 53.4463 6.96759 52.999 7.12137 52.5502L7.53531 52.6627C7.68353 52.23 7.8445 51.7949 8.01752 51.3584L7.60973 51.2358C7.78085 50.8041 7.96226 50.3704 8.15705 49.9357L8.56136 50.0713C8.75066 49.649 8.95144 49.2251 9.16313 48.8002L8.76412 48.655C8.9736 48.2345 9.19351 47.8129 9.4244 47.3907L9.81812 47.5456C10.0427 47.1349 10.2779 46.7228 10.5228 46.3107L10.1335 46.1466C10.375 45.7401 10.6277 45.3338 10.8885 44.9265L11.2703 45.0993C11.5253 44.7009 11.79 44.3021 12.0635 43.9033L11.6858 43.7237C11.9572 43.3279 12.2365 42.9316 12.5257 42.5359L12.8991 42.7234C13.1808 42.3378 13.4713 41.9524 13.7699 41.5671L13.4021 41.3731C13.698 40.9911 14.0001 40.6083 14.3123 40.227L14.6758 40.429C14.9825 40.0544 15.2974 39.68 15.6197 39.3064L15.2631 39.0993C15.5822 38.7293 15.9086 38.3598 16.2427 37.9911L16.5945 38.2043C16.9218 37.8432 17.2563 37.4826 17.5979 37.123L17.2511 36.9026C17.5913 36.5445 17.9405 36.1885 18.2946 35.8322L18.6356 36.056C18.9833 35.7064 19.3378 35.3571 19.6988 35.0094L19.3625 34.7808C19.721 34.4355 20.0847 34.0903 20.4562 33.7473L20.7876 33.9832C21.1543 33.6448 21.5276 33.3074 21.9068 32.9714L21.5806 32.7313C21.9563 32.3984 22.3394 32.0678 22.7272 31.7376L23.0475 31.9811C23.4301 31.6553 23.8184 31.3303 24.2127 31.0074L23.8977 30.7598C24.2912 30.4376 24.689 30.1159 25.0939 29.7968L25.405 30.0499C25.8023 29.7369 26.2049 29.425 26.6132 29.1152L26.308 28.8586C26.7161 28.5489 27.1305 28.2417 27.5493 27.9355L27.8485 28.1954C28.2614 27.8936 28.6801 27.5935 29.1034 27.2952L28.8086 27.0316C29.2302 26.7345 29.6566 26.4389 30.0884 26.1455L30.3771 26.4137C30.8048 26.1232 31.2374 25.8336 31.675 25.5469L31.3907 25.275C31.8246 24.9907 32.2636 24.7085 32.7072 24.4282L32.9856 24.7035C33.4258 24.4253 33.8714 24.1494 34.321 23.8754L34.0476 23.5971C34.4948 23.3246 34.9467 23.0544 35.4029 22.7861L35.6697 23.0671C35.8969 22.9335 36.1258 22.8004 36.3552 22.6679C36.5847 22.5354 36.8147 22.4036 37.0448 22.2731L36.7823 21.9897C37.2444 21.7278 37.7076 21.4696 38.1723 21.2158L38.4295 21.5033C38.8967 21.2481 39.3649 20.9963 39.8343 20.7494L39.5821 20.4589C40.0551 20.2101 40.529 19.9652 41.004 19.7247L41.2512 20.0181C41.73 19.7757 42.2103 19.5382 42.6909 19.3044L42.4504 19.0083C42.9358 18.7722 43.4222 18.5407 43.9091 18.3133L44.143 18.6121C44.6316 18.3839 45.1207 18.1599 45.6105 17.9406L45.3832 17.6391C45.8803 17.4165 46.3772 17.1976 46.8753 16.9841L47.0967 17.289C47.5951 17.0754 48.0942 16.8666 48.5932 16.6623L48.3776 16.3539C48.8862 16.1456 49.3959 15.9434 49.9047 15.7447L50.1123 16.0543C50.6224 15.855 51.1332 15.6609 51.6432 15.4713L51.4422 15.159C51.9592 14.9669 52.4752 14.7783 52.9918 14.5961L53.1869 14.9118C53.7084 14.7278 54.2297 14.5487 54.7504 14.3748L54.5619 14.0564C55.0895 13.8803 55.6175 13.7107 56.144 13.545L56.3231 13.8644C56.8533 13.6975 57.3834 13.536 57.9121 13.3798L57.7402 13.0583C58.2792 12.899 58.8161 12.7433 59.3531 12.595L59.5173 12.9209C60.0562 12.7721 60.5941 12.629 61.1305 12.4914L60.9758 12.1645C61.5234 12.024 62.0698 11.8897 62.6146 11.7609L62.7606 12.0896C63.3107 11.9595 63.8597 11.8352 64.4063 11.7171L64.2686 11.3848C64.825 11.2645 65.3803 11.1524 65.9328 11.0445L66.0595 11.3777C66.6167 11.2689 67.1718 11.1661 67.7242 11.0701L67.6071 10.7346C68.1741 10.636 68.7386 10.5441 69.3003 10.4588L69.4072 10.7958C69.9734 10.7099 70.537 10.6305 71.0971 10.5583L71.0003 10.2209C71.573 10.147 72.1421 10.0789 72.7081 10.0192L72.7929 10.359C73.3666 10.2985 73.9368 10.2457 74.5028 10.1999L74.4313 9.85897C75.0132 9.81192 75.591 9.77293 76.1644 9.7414L76.2226 10.0834C76.802 10.0516 77.3769 10.0276 77.9466 10.0118L77.9032 9.66887C78.4889 9.65261 79.0695 9.64588 79.6446 9.64647L79.6727 9.98832C80.2546 9.98891 80.8313 9.99814 81.4012 10.0162L81.3888 9.67298C81.9795 9.69168 82.5638 9.72109 83.1412 9.75843L83.1361 10.0996C83.7211 10.1375 84.2987 10.1845 84.8686 10.2417L84.8918 9.90316C85.4817 9.96231 86.0635 10.0306 86.637 10.1103L86.593 10.4476C87.1731 10.5283 87.7444 10.6198 88.3058 10.7218L88.3735 10.3862L88.3728 10.3855C88.9562 10.4914 89.5292 10.6105 90.0923 10.7392L90.0024 11.0691C90.5706 11.1991 91.128 11.3401 91.6735 11.4936L91.7885 11.1724C92.3561 11.3321 92.9113 11.5051 93.4542 11.6901L93.3119 12.003C93.8574 12.1889 94.3899 12.3876 94.908 12.5993L95.0807 12.2953C95.6189 12.5152 96.1426 12.7489 96.6512 12.9965L96.4488 13.2869C96.9551 13.5335 97.4456 13.7942 97.9199 14.0686L98.1539 13.7951Z" stroke="#226CA8" stroke-opacity="0.45" stroke-width="0.777465" stroke-dasharray="1.55 1.55"/>
</g>
<defs>
<filter id="filter0_f_20_2" x="-8" y="-8" width="132.62" height="108" filterUnits="userSpaceOnUse" color-interpolation-filters="sRGB">
<feFlood flood-opacity="0" result="BackgroundImageFix"/>
<feBlend mode="normal" in="SourceGraphic" in2="BackgroundImageFix" result="shape"/>
<feGaussianBlur stdDeviation="4" result="effect1_foregroundBlur_20_2"/>
</filter>
<clipPath id="clip0_20_2">
<rect width="116.62" height="92" fill="white"/>
</clipPath>
<clipPath id="clip1_20_2">
<rect width="116.62" height="92" fill="white"/>
</clipPath>
</defs>
</svg>
